<svg width="1440" height="202" viewBox="0 0 1440 202" fill="none" xmlns="http://www.w3.org/2000/svg">
<path d="M-100.4 -2.09808e-05C-78.4 -2.09808e-05 -61.5333 8.50665 -49.8 25.52C-38.0667 42.24 -32.2 66.7333 -32.2 99C-32.2 131.267 -38.0667 155.907 -49.8 172.92C-61.5333 189.64 -78.4 198 -100.4 198V308H-148.8V-2.09808e-05H-100.4ZM-98.2 158.4C-92.3333 158.4 -87.9333 153.56 -85 143.88C-82.0667 134.2 -80.6 119.24 -80.6 99C-80.6 78.76 -82.0667 63.8 -85 54.12C-87.9333 44.44 -92.3333 39.6 -98.2 39.6H-100.4V158.4H-98.2ZM88.3359 224.4C91.2693 231.147 92.7359 239.213 92.7359 248.6C92.7359 267.08 87.7493 282.333 77.7759 294.36C67.8026 306.387 55.1893 312.4 39.9359 312.4C-2.59739 312.4 -23.8641 271.333 -23.8641 189.2C-23.8641 107.067 -2.59739 66 39.9359 66C56.9493 66 70.2959 74.36 79.9759 91.08C89.9493 107.507 94.9359 129.947 94.9359 158.4C94.9359 167.493 94.3493 176.293 93.1759 184.8C92.0026 193.307 90.3893 199.907 88.3359 204.6H24.5359C24.8293 231.293 26.0026 250.067 28.0559 260.92C30.1093 271.773 33.3359 277.2 37.7359 277.2C41.8426 277.2 44.6293 274.853 46.0959 270.16C47.8559 265.173 48.7359 256.52 48.7359 244.2C48.7359 236.867 48.0026 230.267 46.5359 224.4H88.3359ZM37.7359 101.2C33.0426 101.2 29.6693 106.627 27.6159 117.48C25.8559 128.04 24.8293 146.813 24.5359 173.8H46.5359C48.0026 165.587 48.7359 153.12 48.7359 136.4C48.7359 112.933 45.0693 101.2 37.7359 101.2ZM171.798 312.4C151.852 312.4 136.598 301.987 126.038 281.16C115.478 260.333 110.198 229.68 110.198 189.2C110.198 148.72 115.478 118.067 126.038 97.24C136.598 76.4133 151.852 66 171.798 66C191.745 66 206.998 76.4133 217.558 97.24C228.118 118.067 233.398 148.72 233.398 189.2C233.398 229.68 228.118 260.333 217.558 281.16C206.998 301.987 191.745 312.4 171.798 312.4ZM171.798 277.2C176.785 277.2 180.158 270.747 181.918 257.84C183.972 244.933 184.998 222.053 184.998 189.2C184.998 156.347 183.972 133.467 181.918 120.56C180.158 107.653 176.785 101.2 171.798 101.2C166.812 101.2 163.292 107.653 161.238 120.56C159.478 133.467 158.598 156.347 158.598 189.2C158.598 222.053 159.478 244.933 161.238 257.84C163.292 270.747 166.812 277.2 171.798 277.2ZM253.336 387.2V70.4H299.536V74.8L286.336 114.4H292.936C295.869 100.027 300.416 88.44 306.576 79.64C312.736 70.5467 319.923 66 328.136 66C341.923 66 352.629 76.7067 360.256 98.12C368.176 119.533 372.136 149.893 372.136 189.2C372.136 228.507 368.176 258.867 360.256 280.28C352.629 301.693 341.923 312.4 328.136 312.4C319.923 312.4 312.736 308 306.576 299.2C300.416 290.107 295.869 278.373 292.936 264H286.336L299.536 312.4V387.2H253.336ZM311.856 277.2C316.256 277.2 319.336 270.453 321.096 256.96C322.856 243.467 323.736 220.88 323.736 189.2C323.736 157.52 322.856 134.933 321.096 121.44C319.336 107.947 316.256 101.2 311.856 101.2C307.456 101.2 304.229 108.093 302.176 121.88C300.416 135.373 299.536 157.813 299.536 189.2C299.536 220.587 300.416 243.173 302.176 256.96C304.229 270.453 307.456 277.2 311.856 277.2ZM438.325 308H392.125V-2.09808e-05H438.325V308ZM570.445 224.4C573.379 231.147 574.845 239.213 574.845 248.6C574.845 267.08 569.859 282.333 559.885 294.36C549.912 306.387 537.299 312.4 522.045 312.4C479.512 312.4 458.245 271.333 458.245 189.2C458.245 107.067 479.512 66 522.045 66C539.059 66 552.405 74.36 562.085 91.08C572.059 107.507 577.045 129.947 577.045 158.4C577.045 167.493 576.459 176.293 575.285 184.8C574.112 193.307 572.499 199.907 570.445 204.6H506.645C506.939 231.293 508.112 250.067 510.165 260.92C512.219 271.773 515.445 277.2 519.845 277.2C523.952 277.2 526.739 274.853 528.205 270.16C529.965 265.173 530.845 256.52 530.845 244.2C530.845 236.867 530.112 230.267 528.645 224.4H570.445ZM519.845 101.2C515.152 101.2 511.779 106.627 509.725 117.48C507.965 128.04 506.939 146.813 506.645 173.8H528.645C530.112 165.587 530.845 153.12 530.845 136.4C530.845 112.933 527.179 101.2 519.845 101.2ZM612.108 312.4C606.241 311.813 601.401 308.88 597.588 303.6C594.068 298.32 592.308 291.72 592.308 283.8C592.308 275.587 594.508 268.84 598.908 263.56C603.601 257.987 609.468 255.2 616.508 255.2C623.548 255.2 629.268 258.133 633.668 264C638.361 269.573 640.708 276.907 640.708 286C640.708 295.093 638.361 307.12 633.668 322.08C628.974 337.333 623.254 351.707 616.508 365.2H601.108L612.108 312.4ZM772.725 147.4C796.485 147.4 814.818 153.853 827.725 166.76C840.925 179.667 847.525 199.613 847.525 226.6C847.525 252.413 840.925 272.507 827.725 286.88C814.818 300.96 796.485 308 772.725 308H724.325V-2.09808e-05H772.725C795.018 -2.09808e-05 812.325 6.45332 824.645 19.36C836.965 31.9733 843.125 49.72 843.125 72.6C843.125 94.8933 836.818 112.2 824.205 124.52C811.592 136.84 794.432 143 772.725 143V147.4ZM772.725 39.6V114.4H774.925C788.125 114.4 794.725 101.933 794.725 77C794.725 52.0667 788.125 39.6 774.925 39.6H772.725ZM774.925 268.4C791.058 268.4 799.125 252.267 799.125 220C799.125 205.627 797.072 194.773 792.965 187.44C788.858 179.813 782.845 176 774.925 176H772.725V268.4H774.925ZM865.211 308V70.4H911.411V74.8L900.411 114.4H907.011C912.291 99.44 918.744 87.7067 926.371 79.2C934.291 70.4 942.504 66 951.011 66C967.144 66 975.211 79.9333 975.211 107.8C975.211 116.6 974.771 125.4 973.891 134.2C973.011 142.707 971.984 149.307 970.811 154H926.811C928.278 146.08 929.011 138.307 929.011 130.68C929.011 123.933 928.424 119.24 927.251 116.6C926.371 113.667 924.758 112.2 922.411 112.2C920.358 112.2 918.304 113.667 916.251 116.6C914.491 119.533 912.878 123.2 911.411 127.6V308H865.211ZM1019 312.4C1006.98 312.4 997.005 305.947 989.085 293.04C981.165 279.84 977.205 262.827 977.205 242C977.205 221.173 981.018 204.307 988.645 191.4C996.565 178.2 1006.98 171.6 1019.88 171.6C1028.1 171.6 1035.43 176 1041.88 184.8C1048.63 193.6 1053.47 205.333 1056.4 220H1063L1049.8 169.4V132C1049.8 121.44 1049.07 113.667 1047.6 108.68C1046.14 103.693 1043.94 101.2 1041 101.2C1038.07 101.2 1035.87 103.693 1034.4 108.68C1032.94 113.667 1032.2 121.44 1032.2 132V154H990.405C989.231 151.36 988.205 147.547 987.325 142.56C986.445 137.573 986.005 132.587 986.005 127.6C986.005 110 990.991 95.3333 1000.96 83.6C1010.94 71.8667 1024.43 66 1041.44 66C1060.8 66 1074.74 73.1867 1083.24 87.56C1091.75 101.64 1096 124.373 1096 155.76V283.8C1096 288.787 1096.74 293.04 1098.2 296.56C1099.67 300.08 1101.87 302.427 1104.8 303.6V308H1052V303.6L1063 264H1056.4C1053.18 279.253 1048.19 291.133 1041.44 299.64C1034.99 308.147 1027.51 312.4 1019 312.4ZM1036.16 277.2C1039.98 277.2 1042.76 274.12 1044.52 267.96C1046.58 261.8 1047.6 253.147 1047.6 242C1047.6 230.853 1046.58 222.2 1044.52 216.04C1042.76 209.88 1039.98 206.8 1036.16 206.8C1032.35 206.8 1029.56 209.44 1027.8 214.72C1026.34 220 1025.6 229.093 1025.6 242C1025.6 254.907 1026.34 264 1027.8 269.28C1029.56 274.56 1032.35 277.2 1036.16 277.2ZM1117.87 308V70.4H1164.07V74.8L1153.07 114.4H1159.67C1165.24 99.1467 1171.84 87.2667 1179.47 78.76C1187.09 70.2533 1195.16 66 1203.67 66C1212.76 66 1219.8 70.1067 1224.79 78.32C1229.77 86.24 1232.27 97.5333 1232.27 112.2V308H1186.07V121C1186.07 110.733 1183.87 105.6 1179.47 105.6C1176.83 105.6 1174.19 107.653 1171.55 111.76C1168.91 115.573 1166.41 120.853 1164.07 127.6V308H1117.87ZM1295.88 312.4C1282.09 312.4 1271.24 301.693 1263.32 280.28C1255.69 258.867 1251.88 228.507 1251.88 189.2C1251.88 149.893 1255.69 119.533 1263.32 98.12C1271.24 76.7067 1282.09 66 1295.88 66C1304.09 66 1311.28 70.5467 1317.44 79.64C1323.6 88.44 1328.14 100.027 1331.08 114.4H1337.68L1324.48 66V-2.09808e-05H1370.68V283.8C1370.68 289.08 1371.41 293.48 1372.88 297C1374.64 300.52 1376.84 302.72 1379.48 303.6V308H1324.48V303.6L1337.68 264H1331.08C1328.14 278.373 1323.6 290.107 1317.44 299.2C1311.28 308 1304.09 312.4 1295.88 312.4ZM1312.16 277.2C1316.56 277.2 1319.64 270.453 1321.4 256.96C1323.45 243.173 1324.48 220.587 1324.48 189.2C1324.48 157.813 1323.45 135.373 1321.4 121.88C1319.64 108.093 1316.56 101.2 1312.16 101.2C1307.76 101.2 1304.68 107.947 1302.92 121.44C1301.16 134.933 1300.28 157.52 1300.28 189.2C1300.28 220.88 1301.16 243.467 1302.92 256.96C1304.68 270.453 1307.76 277.2 1312.16 277.2ZM1445.67 312.4C1428.07 312.4 1414.13 307.267 1403.87 297C1393.6 286.733 1388.47 272.8 1388.47 255.2C1388.47 244.053 1389.93 234.52 1392.87 226.6H1434.67V248.6C1434.67 259.747 1435.55 267.373 1437.31 271.48C1439.07 275.293 1441.85 277.2 1445.67 277.2C1453 277.2 1456.67 272.067 1456.67 261.8C1456.67 251.533 1454.17 242.44 1449.19 234.52C1444.49 226.6 1436.87 216.627 1426.31 204.6C1413.99 191.4 1404.6 179.227 1398.15 168.08C1391.69 156.933 1388.47 143.44 1388.47 127.6C1388.47 109.12 1393.75 94.3067 1404.31 83.16C1415.16 71.72 1428.95 66 1445.67 66C1463.27 66 1477.2 71.1333 1487.47 81.4C1497.73 91.6667 1502.87 105.6 1502.87 123.2C1502.87 132.88 1501.4 141.68 1498.47 149.6H1456.67V129.8C1456.67 119.533 1455.79 112.2 1454.03 107.8C1452.27 103.4 1449.48 101.2 1445.67 101.2C1439.8 101.2 1436.87 105.6 1436.87 114.4C1436.87 124.96 1439.36 134.64 1444.35 143.44C1449.63 151.947 1457.55 161.92 1468.11 173.36C1480.43 187.147 1489.67 199.467 1495.83 210.32C1501.99 220.88 1505.07 233.64 1505.07 248.6C1505.07 267.96 1499.64 283.507 1488.79 295.24C1477.93 306.68 1463.56 312.4 1445.67 312.4ZM1612.4 312.4C1600.38 312.4 1590.4 305.947 1582.48 293.04C1574.56 279.84 1570.6 262.827 1570.6 242C1570.6 221.173 1574.42 204.307 1582.04 191.4C1589.96 178.2 1600.38 171.6 1613.28 171.6C1621.5 171.6 1628.83 176 1635.28 184.8C1642.03 193.6 1646.87 205.333 1649.8 220H1656.4L1643.2 169.4V132C1643.2 121.44 1642.47 113.667 1641 108.68C1639.54 103.693 1637.34 101.2 1634.4 101.2C1631.47 101.2 1629.27 103.693 1627.8 108.68C1626.34 113.667 1625.6 121.44 1625.6 132V154H1583.8C1582.63 151.36 1581.6 147.547 1580.72 142.56C1579.84 137.573 1579.4 132.587 1579.4 127.6C1579.4 110 1584.39 95.3333 1594.36 83.6C1604.34 71.8667 1617.83 66 1634.84 66C1654.2 66 1668.14 73.1867 1676.64 87.56C1685.15 101.64 1689.4 124.373 1689.4 155.76V283.8C1689.4 288.787 1690.14 293.04 1691.6 296.56C1693.07 300.08 1695.27 302.427 1698.2 303.6V308H1645.4V303.6L1656.4 264H1649.8C1646.58 279.253 1641.59 291.133 1634.84 299.64C1628.39 308.147 1620.91 312.4 1612.4 312.4ZM1629.56 277.2C1633.38 277.2 1636.16 274.12 1637.92 267.96C1639.98 261.8 1641 253.147 1641 242C1641 230.853 1639.98 222.2 1637.92 216.04C1636.16 209.88 1633.38 206.8 1629.56 206.8C1625.75 206.8 1622.96 209.44 1621.2 214.72C1619.74 220 1619 229.093 1619 242C1619 254.907 1619.74 264 1621.2 269.28C1622.96 274.56 1625.75 277.2 1629.56 277.2ZM1711.27 308V70.4H1757.47V74.8L1746.47 114.4H1753.07C1758.64 99.1467 1765.24 87.2667 1772.87 78.76C1780.49 70.2533 1788.56 66 1797.07 66C1806.16 66 1813.2 70.1067 1818.19 78.32C1823.17 86.24 1825.67 97.5333 1825.67 112.2V308H1779.47V121C1779.47 110.733 1777.27 105.6 1772.87 105.6C1770.23 105.6 1767.59 107.653 1764.95 111.76C1762.31 115.573 1759.81 120.853 1757.47 127.6V308H1711.27ZM1889.28 312.4C1875.49 312.4 1864.64 301.693 1856.72 280.28C1849.09 258.867 1845.28 228.507 1845.28 189.2C1845.28 149.893 1849.09 119.533 1856.72 98.12C1864.64 76.7067 1875.49 66 1889.28 66C1897.49 66 1904.68 70.5467 1910.84 79.64C1917 88.44 1921.54 100.027 1924.48 114.4H1931.08L1917.88 66V-2.09808e-05H1964.08V283.8C1964.08 289.08 1964.81 293.48 1966.28 297C1968.04 300.52 1970.24 302.72 1972.88 303.6V308H1917.88V303.6L1931.08 264H1924.48C1921.54 278.373 1917 290.107 1910.84 299.2C1904.68 308 1897.49 312.4 1889.28 312.4ZM1905.56 277.2C1909.96 277.2 1913.04 270.453 1914.8 256.96C1916.85 243.173 1917.88 220.587 1917.88 189.2C1917.88 157.813 1916.85 135.373 1914.8 121.88C1913.04 108.093 1909.96 101.2 1905.56 101.2C1901.16 101.2 1898.08 107.947 1896.32 121.44C1894.56 134.933 1893.68 157.52 1893.68 189.2C1893.68 220.88 1894.56 243.467 1896.32 256.96C1898.08 270.453 1901.16 277.2 1905.56 277.2ZM2098.31 -2.09808e-05C2120.31 -2.09808e-05 2137.18 8.50665 2148.91 25.52C2160.64 42.24 2166.51 66.7333 2166.51 99C2166.51 131.267 2160.64 155.907 2148.91 172.92C2137.18 189.64 2120.31 198 2098.31 198V308H2049.91V-2.09808e-05H2098.31ZM2100.51 158.4C2106.38 158.4 2110.78 153.56 2113.71 143.88C2116.64 134.2 2118.11 119.24 2118.11 99C2118.11 78.76 2116.64 63.8 2113.71 54.12C2110.78 44.44 2106.38 39.6 2100.51 39.6H2098.31V158.4H2100.51ZM2183.92 308V70.4H2230.12V74.8L2219.12 114.4H2225.72C2231 99.44 2237.46 87.7067 2245.08 79.2C2253 70.4 2261.22 66 2269.72 66C2285.86 66 2293.92 79.9333 2293.92 107.8C2293.92 116.6 2293.48 125.4 2292.6 134.2C2291.72 142.707 2290.7 149.307 2289.52 154H2245.52C2246.99 146.08 2247.72 138.307 2247.72 130.68C2247.72 123.933 2247.14 119.24 2245.96 116.6C2245.08 113.667 2243.47 112.2 2241.12 112.2C2239.07 112.2 2237.02 113.667 2234.96 116.6C2233.2 119.533 2231.59 123.2 2230.12 127.6V308H2183.92ZM2364.49 312.4C2344.55 312.4 2329.29 301.987 2318.73 281.16C2308.17 260.333 2302.89 229.68 2302.89 189.2C2302.89 148.72 2308.17 118.067 2318.73 97.24C2329.29 76.4133 2344.55 66 2364.49 66C2384.44 66 2399.69 76.4133 2410.25 97.24C2420.81 118.067 2426.09 148.72 2426.09 189.2C2426.09 229.68 2420.81 260.333 2410.25 281.16C2399.69 301.987 2384.44 312.4 2364.49 312.4ZM2364.49 277.2C2369.48 277.2 2372.85 270.747 2374.61 257.84C2376.67 244.933 2377.69 222.053 2377.69 189.2C2377.69 156.347 2376.67 133.467 2374.61 120.56C2372.85 107.653 2369.48 101.2 2364.49 101.2C2359.51 101.2 2355.99 107.653 2353.93 120.56C2352.17 133.467 2351.29 156.347 2351.29 189.2C2351.29 222.053 2352.17 244.933 2353.93 257.84C2355.99 270.747 2359.51 277.2 2364.49 277.2ZM2487.83 312.4C2474.04 312.4 2463.19 301.693 2455.27 280.28C2447.64 258.867 2443.83 228.507 2443.83 189.2C2443.83 149.893 2447.64 119.533 2455.27 98.12C2463.19 76.7067 2474.04 66 2487.83 66C2496.04 66 2503.23 70.5467 2509.39 79.64C2515.55 88.44 2520.1 100.027 2523.03 114.4H2529.63L2516.43 66V-2.09808e-05H2562.63V283.8C2562.63 289.08 2563.36 293.48 2564.83 297C2566.59 300.52 2568.79 302.72 2571.43 303.6V308H2516.43V303.6L2529.63 264H2523.03C2520.1 278.373 2515.55 290.107 2509.39 299.2C2503.23 308 2496.04 312.4 2487.83 312.4ZM2504.11 277.2C2508.51 277.2 2511.59 270.453 2513.35 256.96C2515.4 243.173 2516.43 220.587 2516.43 189.2C2516.43 157.813 2515.4 135.373 2513.35 121.88C2511.59 108.093 2508.51 101.2 2504.11 101.2C2499.71 101.2 2496.63 107.947 2494.87 121.44C2493.11 134.933 2492.23 157.52 2492.23 189.2C2492.23 220.88 2493.11 243.467 2494.87 256.96C2496.63 270.453 2499.71 277.2 2504.11 277.2ZM2613.42 312.4C2604.33 312.4 2597.29 308.44 2592.3 300.52C2587.31 292.307 2584.82 280.867 2584.82 266.2V70.4H2631.02V257.4C2631.02 267.667 2633.22 272.8 2637.62 272.8C2640.26 272.8 2642.9 270.893 2645.54 267.08C2648.18 262.973 2650.67 257.547 2653.02 250.8V70.4H2699.22V283.8C2699.22 289.667 2699.95 294.36 2701.42 297.88C2703.18 301.4 2705.38 303.307 2708.02 303.6V308H2653.02V303.6L2664.02 264H2657.42C2651.85 279.253 2645.25 291.133 2637.62 299.64C2629.99 308.147 2621.93 312.4 2613.42 312.4ZM2782.63 312.4C2740.1 312.4 2718.83 271.333 2718.83 189.2C2718.83 107.067 2740.1 66 2782.63 66C2799.35 66 2812.26 72.0133 2821.35 84.04C2830.74 95.7733 2835.43 112.493 2835.43 134.2C2835.43 148.867 2833.96 159.867 2831.03 167.2H2789.23C2790.7 158.4 2791.43 149.6 2791.43 140.8C2791.43 114.4 2787.62 101.2 2779.99 101.2C2775.59 101.2 2772.36 107.8 2770.31 121C2768.26 134.2 2767.23 156.933 2767.23 189.2C2767.23 221.467 2768.26 244.2 2770.31 257.4C2772.36 270.6 2775.59 277.2 2779.99 277.2C2787.62 277.2 2791.43 264 2791.43 237.6C2791.43 228.8 2790.7 220 2789.23 211.2H2831.03C2833.96 218.533 2835.43 229.533 2835.43 244.2C2835.43 265.907 2830.74 282.773 2821.35 294.8C2812.26 306.533 2799.35 312.4 2782.63 312.4ZM2916.75 312.4C2898.56 312.4 2885.21 306.24 2876.71 293.92C2868.2 281.307 2863.95 261.8 2863.95 235.4V107.8H2844.15V70.4H2863.95L2885.95 22H2910.15V70.4H2960.75V107.8H2910.15V237.6C2910.15 253.147 2910.59 263.707 2911.47 269.28C2912.35 274.56 2914.11 277.2 2916.75 277.2C2919.09 277.2 2920.71 275.88 2921.59 273.24C2922.76 270.307 2923.35 265.76 2923.35 259.6C2923.35 250.8 2922.03 242.293 2919.39 234.08C2917.04 225.867 2913.96 218.973 2910.15 213.4H2951.95C2955.76 218.387 2958.84 224.84 2961.19 232.76C2963.83 240.387 2965.15 248.6 2965.15 257.4C2965.15 274.413 2960.75 287.907 2951.95 297.88C2943.44 307.56 2931.71 312.4 2916.75 312.4ZM3026.92 312.4C3009.32 312.4 2995.38 307.267 2985.12 297C2974.85 286.733 2969.72 272.8 2969.72 255.2C2969.72 244.053 2971.18 234.52 2974.12 226.6H3015.92V248.6C3015.92 259.747 3016.8 267.373 3018.56 271.48C3020.32 275.293 3023.1 277.2 3026.92 277.2C3034.25 277.2 3037.92 272.067 3037.92 261.8C3037.92 251.533 3035.42 242.44 3030.44 234.52C3025.74 226.6 3018.12 216.627 3007.56 204.6C2995.24 191.4 2985.85 179.227 2979.4 168.08C2972.94 156.933 2969.72 143.44 2969.72 127.6C2969.72 109.12 2975 94.3067 2985.56 83.16C2996.41 71.72 3010.2 66 3026.92 66C3044.52 66 3058.45 71.1333 3068.72 81.4C3078.98 91.6667 3084.12 105.6 3084.12 123.2C3084.12 132.88 3082.65 141.68 3079.72 149.6H3037.92V129.8C3037.92 119.533 3037.04 112.2 3035.28 107.8C3033.52 103.4 3030.73 101.2 3026.92 101.2C3021.05 101.2 3018.12 105.6 3018.12 114.4C3018.12 124.96 3020.61 134.64 3025.6 143.44C3030.88 151.947 3038.8 161.92 3049.36 173.36C3061.68 187.147 3070.92 199.467 3077.08 210.32C3083.24 220.88 3086.32 233.64 3086.32 248.6C3086.32 267.96 3080.89 283.507 3070.04 295.24C3059.18 306.68 3044.81 312.4 3026.92 312.4ZM3125.88 312.4C3118.84 312.4 3112.98 309.76 3108.28 304.48C3103.88 298.907 3101.68 292.013 3101.68 283.8C3101.68 275.587 3103.88 268.84 3108.28 263.56C3112.98 257.987 3118.84 255.2 3125.88 255.2C3132.92 255.2 3138.64 257.987 3143.04 263.56C3147.74 268.84 3150.08 275.587 3150.08 283.8C3150.08 292.013 3147.74 298.907 3143.04 304.48C3138.64 309.76 3132.92 312.4 3125.88 312.4Z" fill="#BABABA" fill-opacity="0.1"/>
</svg>
