<svg width="412" height="544" viewBox="0 0 412 544" fill="none" xmlns="http://www.w3.org/2000/svg">
<rect width="412" height="544" rx="12" fill="#FDF6FF"/>
<mask id="mask0_1324_67" style="mask-type:alpha" maskUnits="userSpaceOnUse" x="0" y="0" width="412" height="544">
<rect width="412" height="544" rx="12" fill="#FDF6FF"/>
</mask>
<g mask="url(#mask0_1324_67)">
<rect x="18.5" y="32.5" width="374" height="479.715" rx="11.5" fill="white"/>
<mask id="path-4-inside-1_1324_67" fill="white">
<path d="M18 76H393V132H18V76Z"/>
</mask>
<path d="M18 76H393V132H18V76Z" fill="white"/>
<rect x="42" y="103.5" width="106.5" height="1" fill="white" fill-opacity="0.01"/>
<path d="M160.319 103.288C161.263 103.528 162.287 104.44 162.287 106.008C162.287 107.8 160.911 109 159.023 109H153.967V98.024H158.847C160.783 98.024 161.951 99.208 161.951 100.776C161.951 102.328 160.911 103.048 160.319 103.24V103.288ZM159.743 101.16C159.743 100.232 159.183 99.752 158.191 99.752H156.111V102.616H158.223C159.231 102.616 159.743 102.056 159.743 101.16ZM158.479 107.288C159.455 107.288 160.095 106.76 160.095 105.736C160.095 104.712 159.423 104.184 158.399 104.184H156.111V107.288H158.479ZM168.803 101.16H170.995V109H168.883L168.819 107.848C168.371 108.584 167.603 109.08 166.515 109.08C164.723 109.08 163.811 107.816 163.811 106.2V101.16H166.019V105.688C166.019 106.6 166.483 107.176 167.363 107.176C168.179 107.176 168.803 106.52 168.803 105.544V101.16ZM179.281 106.776C179.297 108.232 177.969 109.08 175.873 109.08C173.665 109.08 172.545 108.184 172.529 106.552L174.401 106.568C174.449 107.208 174.881 107.56 175.841 107.56C176.769 107.56 177.169 107.288 177.153 106.84C177.153 105.368 172.689 106.568 172.689 103.4C172.689 101.96 173.969 101.08 176.033 101.08C178.033 101.08 179.153 102.008 179.169 103.56H177.265C177.217 102.92 176.785 102.6 176.017 102.6C175.185 102.6 174.817 102.888 174.817 103.336C174.817 104.776 179.281 103.512 179.281 106.776ZM183.389 98.632C183.389 99.432 182.765 99.992 181.965 99.992C181.181 99.992 180.557 99.432 180.557 98.632C180.557 97.848 181.181 97.256 181.965 97.256C182.765 97.256 183.389 97.848 183.389 98.632ZM180.861 109V101.16H183.069V109H180.861ZM189.665 101.08C191.441 101.08 192.401 102.328 192.401 104.088V109H190.209V104.584C190.209 103.592 189.745 102.984 188.817 102.984C187.857 102.984 187.233 103.64 187.233 104.616V109H185.041V101.16H187.153L187.217 102.312C187.681 101.576 188.465 101.08 189.665 101.08ZM201.515 105.144V105.56H195.995C196.155 106.76 196.859 107.368 197.883 107.368C198.939 107.368 199.323 106.824 199.451 106.408H201.483C201.227 107.768 200.139 109.08 197.771 109.08C195.387 109.08 193.883 107.432 193.883 105.096C193.883 102.728 195.531 101.08 197.803 101.08C200.187 101.08 201.515 102.744 201.515 105.144ZM197.819 102.712C196.939 102.712 196.235 103.208 196.027 104.296H199.467C199.323 103.176 198.715 102.712 197.819 102.712ZM209.377 106.776C209.393 108.232 208.065 109.08 205.969 109.08C203.761 109.08 202.641 108.184 202.625 106.552L204.497 106.568C204.545 107.208 204.977 107.56 205.937 107.56C206.865 107.56 207.265 107.288 207.249 106.84C207.249 105.368 202.785 106.568 202.785 103.4C202.785 101.96 204.065 101.08 206.129 101.08C208.129 101.08 209.249 102.008 209.265 103.56H207.361C207.313 102.92 206.881 102.6 206.113 102.6C205.281 102.6 204.913 102.888 204.913 103.336C204.913 104.776 209.377 103.512 209.377 106.776ZM217.261 106.776C217.277 108.232 215.949 109.08 213.853 109.08C211.645 109.08 210.525 108.184 210.509 106.552L212.381 106.568C212.429 107.208 212.861 107.56 213.821 107.56C214.749 107.56 215.149 107.288 215.133 106.84C215.133 105.368 210.669 106.568 210.669 103.4C210.669 101.96 211.949 101.08 214.013 101.08C216.013 101.08 217.133 102.008 217.149 103.56H215.245C215.197 102.92 214.765 102.6 213.997 102.6C213.165 102.6 212.797 102.888 212.797 103.336C212.797 104.776 217.261 103.512 217.261 106.776ZM227.216 107.08L227.28 108.872C226.992 108.984 226.496 109.08 225.92 109.08C223.84 109.08 222.688 107.864 222.688 106.088V102.904H221.536V101.16H222.816V98.936H224.88V101.16H227.216V102.904H224.88V105.992C224.88 106.76 225.264 107.256 226.272 107.256C226.608 107.256 226.912 107.192 227.216 107.08ZM232.113 101.08C234.545 101.08 236.145 102.696 236.145 105.048C236.145 107.4 234.545 109.08 232.113 109.08C229.713 109.08 228.097 107.48 228.097 105.128C228.097 102.76 229.713 101.08 232.113 101.08ZM232.113 102.888C231.025 102.888 230.305 103.768 230.305 105.096C230.305 106.392 231.025 107.272 232.113 107.272C233.233 107.272 233.921 106.392 233.921 105.096C233.921 103.768 233.233 102.888 232.113 102.888ZM241.309 101.08C243.741 101.08 245.341 102.696 245.341 105.048C245.341 107.4 243.741 109.08 241.309 109.08C238.909 109.08 237.293 107.48 237.293 105.128C237.293 102.76 238.909 101.08 241.309 101.08ZM241.309 102.888C240.221 102.888 239.501 103.768 239.501 105.096C239.501 106.392 240.221 107.272 241.309 107.272C242.429 107.272 243.117 106.392 243.117 105.096C243.117 103.768 242.429 102.888 241.309 102.888ZM249.817 107.192L249.945 108.92C249.641 109.016 249.273 109.08 248.793 109.08C247.513 109.08 246.857 108.312 246.857 106.92V97.64H249.049V106.792C249.049 107.096 249.209 107.272 249.433 107.272C249.561 107.272 249.641 107.256 249.817 107.192ZM257.702 106.776C257.718 108.232 256.39 109.08 254.294 109.08C252.086 109.08 250.966 108.184 250.95 106.552L252.822 106.568C252.87 107.208 253.302 107.56 254.262 107.56C255.19 107.56 255.59 107.288 255.574 106.84C255.574 105.368 251.11 106.568 251.11 103.4C251.11 101.96 252.39 101.08 254.454 101.08C256.454 101.08 257.574 102.008 257.59 103.56H255.686C255.638 102.92 255.206 102.6 254.438 102.6C253.606 102.6 253.238 102.888 253.238 103.336C253.238 104.776 257.702 103.512 257.702 106.776Z" fill="#15171F"/>
<rect x="262.5" y="103.5" width="106.5" height="1" fill="white" fill-opacity="0.01"/>
<path d="M393 131H18V133H393V131Z" fill="#E6EAED" mask="url(#path-4-inside-1_1324_67)"/>
<rect x="42" y="156" width="155.5" height="140" rx="10" fill="#EFF1FA"/>
<rect x="97.75" y="172" width="44" height="44" rx="12" fill="#5864AE"/>
<path d="M128.083 188.042V197.95C128.083 198.758 127.425 199.5 126.617 199.6L126.358 199.633C124.992 199.817 123.067 200.383 121.517 201.033C120.975 201.258 120.375 200.85 120.375 200.258V188.667C120.375 188.358 120.55 188.075 120.825 187.925C122.35 187.1 124.658 186.367 126.225 186.233H126.275C127.275 186.233 128.083 187.042 128.083 188.042Z" fill="#EFF1FA"/>
<path d="M118.675 187.925C117.15 187.1 114.842 186.367 113.275 186.233H113.217C112.217 186.233 111.408 187.042 111.408 188.042V197.95C111.408 198.758 112.067 199.5 112.875 199.6L113.133 199.633C114.5 199.817 116.425 200.383 117.975 201.033C118.517 201.258 119.117 200.85 119.117 200.258V188.667C119.117 188.35 118.95 188.075 118.675 187.925ZM113.917 190.45H115.792C116.133 190.45 116.417 190.733 116.417 191.075C116.417 191.425 116.133 191.7 115.792 191.7H113.917C113.575 191.7 113.292 191.425 113.292 191.075C113.292 190.733 113.575 190.45 113.917 190.45ZM116.417 194.2H113.917C113.575 194.2 113.292 193.925 113.292 193.575C113.292 193.233 113.575 192.95 113.917 192.95H116.417C116.758 192.95 117.042 193.233 117.042 193.575C117.042 193.925 116.758 194.2 116.417 194.2Z" fill="#EFF1FA"/>
<path d="M72.6676 232.988C73.4936 233.198 74.3616 233.982 74.3616 235.368C74.3616 236.964 73.1716 238 71.4776 238H67.2496V228.396H71.3656C73.0456 228.396 74.0396 229.432 74.0396 230.804C74.0396 232.148 73.1576 232.778 72.6676 232.946V232.988ZM72.3316 231.098C72.3316 230.23 71.7996 229.768 70.9036 229.768H68.9296V232.442H70.9176C71.8556 232.442 72.3316 231.896 72.3316 231.098ZM71.1556 236.628C72.0516 236.628 72.6536 236.152 72.6536 235.172C72.6536 234.206 72.0236 233.702 71.0716 233.702H68.9296V236.628H71.1556ZM80.1973 231.14H81.9053V238H80.2673L80.2113 237.006C79.8053 237.636 79.1193 238.07 78.1673 238.07C76.6133 238.07 75.7873 237.02 75.7873 235.578V231.14H77.4953V235.214C77.4953 236.068 77.9433 236.6 78.7973 236.6C79.5953 236.6 80.1973 235.984 80.1973 235.032V231.14ZM89.0666 236.082C89.0806 237.314 87.9746 238.07 86.1546 238.07C84.2506 238.07 83.3126 237.286 83.2986 235.9L84.7826 235.914C84.8246 236.502 85.2166 236.824 86.1546 236.824C87.0366 236.824 87.4146 236.558 87.4146 236.124C87.4146 234.738 83.4526 235.816 83.4526 233.072C83.4526 231.84 84.5306 231.07 86.2806 231.07C88.0026 231.07 88.9406 231.854 88.9686 233.212H87.4706C87.4286 232.61 86.9946 232.316 86.2666 232.316C85.4686 232.316 85.1046 232.596 85.1046 233.03C85.1046 234.388 89.0666 233.254 89.0666 236.082ZM92.5015 228.914C92.5015 229.558 92.0115 230.006 91.3815 230.006C90.7515 230.006 90.2615 229.558 90.2615 228.914C90.2615 228.298 90.7515 227.836 91.3815 227.836C92.0115 227.836 92.5015 228.298 92.5015 228.914ZM90.5135 238V231.14H92.2215V238H90.5135ZM97.8909 231.07C99.4169 231.07 100.313 232.106 100.313 233.688V238H98.5909V234.08C98.5909 233.114 98.1429 232.54 97.2749 232.54C96.3509 232.54 95.7489 233.17 95.7489 234.108V238H94.0409V231.14H95.6789L95.7349 232.134C96.1409 231.504 96.8549 231.07 97.8909 231.07ZM108.268 234.612V234.962H103.354C103.48 236.082 104.138 236.712 105.118 236.712C106.14 236.712 106.518 236.18 106.63 235.76H108.24C108.002 236.964 107.05 238.07 105.048 238.07C102.948 238.07 101.674 236.614 101.674 234.584C101.674 232.512 103.102 231.07 105.062 231.07C107.092 231.07 108.268 232.47 108.268 234.612ZM105.076 232.386C104.222 232.386 103.564 232.904 103.382 233.912H106.644C106.504 232.862 105.93 232.386 105.076 232.386ZM115.057 236.082C115.071 237.314 113.965 238.07 112.145 238.07C110.241 238.07 109.303 237.286 109.289 235.9L110.773 235.914C110.815 236.502 111.207 236.824 112.145 236.824C113.027 236.824 113.405 236.558 113.405 236.124C113.405 234.738 109.443 235.816 109.443 233.072C109.443 231.84 110.521 231.07 112.271 231.07C113.993 231.07 114.931 231.854 114.959 233.212H113.461C113.419 232.61 112.985 232.316 112.257 232.316C111.459 232.316 111.095 232.596 111.095 233.03C111.095 234.388 115.057 233.254 115.057 236.082ZM121.852 236.082C121.866 237.314 120.76 238.07 118.94 238.07C117.036 238.07 116.098 237.286 116.084 235.9L117.568 235.914C117.61 236.502 118.002 236.824 118.94 236.824C119.822 236.824 120.2 236.558 120.2 236.124C120.2 234.738 116.238 235.816 116.238 233.072C116.238 231.84 117.316 231.07 119.066 231.07C120.788 231.07 121.726 231.854 121.754 233.212H120.256C120.214 232.61 119.78 232.316 119.052 232.316C118.254 232.316 117.89 232.596 117.89 233.03C117.89 234.388 121.852 233.254 121.852 236.082ZM129.764 231.07C129.932 231.07 130.1 231.098 130.184 231.112L130.17 232.792C130.072 232.75 129.96 232.722 129.694 232.722C128.854 232.722 128.14 233.296 128.028 234.332V238H126.32V231.14H127.958L127.986 232.246C128.322 231.56 128.882 231.07 129.764 231.07ZM137.376 234.612V234.962H132.462C132.588 236.082 133.246 236.712 134.226 236.712C135.248 236.712 135.626 236.18 135.738 235.76H137.348C137.11 236.964 136.158 238.07 134.156 238.07C132.056 238.07 130.782 236.614 130.782 234.584C130.782 232.512 132.21 231.07 134.17 231.07C136.2 231.07 137.376 232.47 137.376 234.612ZM134.184 232.386C133.33 232.386 132.672 232.904 132.49 233.912H135.752C135.612 232.862 135.038 232.386 134.184 232.386ZM141.756 238.07C139.684 238.07 138.424 236.628 138.424 234.598C138.424 232.526 139.824 231.07 141.798 231.07C143.758 231.07 144.766 232.232 144.934 233.772H143.254C143.128 233.058 142.708 232.484 141.84 232.484C140.832 232.484 140.16 233.254 140.16 234.57C140.16 235.886 140.79 236.656 141.826 236.656C142.736 236.656 143.128 236.096 143.254 235.41H144.934C144.752 236.908 143.73 238.07 141.756 238.07ZM149.389 231.07C151.489 231.07 152.875 232.47 152.875 234.556C152.875 236.614 151.489 238.07 149.389 238.07C147.303 238.07 145.903 236.684 145.903 234.626C145.903 232.554 147.303 231.07 149.389 231.07ZM149.389 232.484C148.325 232.484 147.639 233.338 147.639 234.584C147.639 235.816 148.325 236.656 149.389 236.656C150.467 236.656 151.139 235.816 151.139 234.584C151.139 233.338 150.467 232.484 149.389 232.484ZM157.75 231.07C157.918 231.07 158.086 231.098 158.17 231.112L158.156 232.792C158.058 232.75 157.946 232.722 157.68 232.722C156.84 232.722 156.126 233.296 156.014 234.332V238H154.306V231.14H155.944L155.972 232.246C156.308 231.56 156.868 231.07 157.75 231.07ZM163.99 228.06H165.698V238H164.046L164.004 236.964C163.598 237.594 162.856 238.07 161.806 238.07C160.028 238.07 158.782 236.782 158.782 234.654C158.782 232.554 160 231.07 161.904 231.07C162.94 231.07 163.612 231.49 163.99 232.106V228.06ZM162.184 236.628C163.388 236.628 163.99 235.62 163.99 234.78V234.374C163.99 233.492 163.374 232.512 162.198 232.512C161.19 232.512 160.504 233.352 160.504 234.612C160.504 235.844 161.162 236.628 162.184 236.628ZM172.862 236.082C172.876 237.314 171.77 238.07 169.95 238.07C168.046 238.07 167.108 237.286 167.094 235.9L168.578 235.914C168.62 236.502 169.012 236.824 169.95 236.824C170.832 236.824 171.21 236.558 171.21 236.124C171.21 234.738 167.248 235.816 167.248 233.072C167.248 231.84 168.326 231.07 170.076 231.07C171.798 231.07 172.736 231.854 172.764 233.212H171.266C171.224 232.61 170.79 232.316 170.062 232.316C169.264 232.316 168.9 232.596 168.9 233.03C168.9 234.388 172.862 233.254 172.862 236.082Z" fill="#30333B"/>
<path d="M90.2143 251.082H92.0473L92.0343 260H90.9293V252.083L88.3033 260H87.2763L84.6503 252.122V260H83.5453L83.5323 251.082H85.3523L87.7833 258.609L90.2143 251.082ZM99.8873 258.96L99.9783 259.961C99.7573 260.026 99.5233 260.065 99.2503 260.065C98.5873 260.065 98.1453 259.649 98.0673 259.025C97.8333 259.389 97.2483 260.065 95.8313 260.065C94.3883 260.065 93.6733 259.35 93.6733 258.336C93.6733 256.958 94.9473 256.386 96.7153 256.386H98.0543V255.97C98.0543 255.086 97.5083 254.54 96.4813 254.54C95.5713 254.54 95.0123 254.969 94.9343 255.736H93.8163C93.9203 254.358 94.9993 253.565 96.5593 253.565C98.2363 253.565 99.1983 254.462 99.1983 255.996V258.596C99.1983 258.869 99.3543 259.025 99.5623 259.025C99.6793 259.025 99.7573 259.012 99.8873 258.96ZM96.0653 259.142C97.3523 259.142 98.0543 258.245 98.0543 257.66V257.218H96.6503C95.4543 257.218 94.8433 257.582 94.8433 258.284C94.8433 258.817 95.2073 259.142 96.0653 259.142ZM104.371 253.565C105.775 253.565 106.672 254.423 106.672 255.983V260H105.515V256.217C105.515 255.138 105.008 254.54 104.059 254.54C103.032 254.54 102.343 255.216 102.343 256.295V260H101.199V253.63H102.278L102.33 254.579C102.733 253.994 103.409 253.565 104.371 253.565ZM114.284 258.96L114.375 259.961C114.154 260.026 113.92 260.065 113.647 260.065C112.984 260.065 112.542 259.649 112.464 259.025C112.23 259.389 111.645 260.065 110.228 260.065C108.785 260.065 108.07 259.35 108.07 258.336C108.07 256.958 109.344 256.386 111.112 256.386H112.451V255.97C112.451 255.086 111.905 254.54 110.878 254.54C109.968 254.54 109.409 254.969 109.331 255.736H108.213C108.317 254.358 109.396 253.565 110.956 253.565C112.633 253.565 113.595 254.462 113.595 255.996V258.596C113.595 258.869 113.751 259.025 113.959 259.025C114.076 259.025 114.154 259.012 114.284 258.96ZM110.462 259.142C111.749 259.142 112.451 258.245 112.451 257.66V257.218H111.047C109.851 257.218 109.24 257.582 109.24 258.284C109.24 258.817 109.604 259.142 110.462 259.142ZM120.288 253.63H121.367V260.13C121.367 261.612 120.288 262.73 118.299 262.73C116.57 262.73 115.582 262.028 115.426 260.689H116.57C116.713 261.456 117.259 261.755 118.286 261.755C119.625 261.755 120.223 261.014 120.223 260.13V259.025C119.846 259.636 119.183 260.065 118.156 260.065C116.401 260.065 115.205 258.765 115.205 256.802C115.205 254.865 116.401 253.565 118.156 253.565C119.196 253.565 119.859 254.007 120.236 254.631L120.288 253.63ZM118.234 259.09C119.599 259.09 120.223 257.907 120.223 256.945V256.685C120.223 255.723 119.599 254.54 118.234 254.54C117.116 254.54 116.375 255.45 116.375 256.802C116.375 258.18 117.116 259.09 118.234 259.09ZM128.814 256.828V257.114H124.056C124.147 258.323 124.836 259.09 125.954 259.09C127.072 259.09 127.501 258.505 127.618 257.985H128.775C128.528 259.142 127.644 260.065 125.941 260.065C123.952 260.065 122.873 258.7 122.873 256.828C122.873 254.917 124.134 253.565 125.915 253.565C127.696 253.565 128.814 254.774 128.814 256.828ZM125.928 254.54C124.953 254.54 124.264 255.203 124.082 256.269H127.657C127.514 255.125 126.89 254.54 125.928 254.54ZM137.315 253.63H138.485L136.067 260L135.794 260.715C135.235 262.197 134.624 262.665 133.545 262.665C133.181 262.665 132.804 262.6 132.596 262.509L132.687 261.495C132.908 261.586 133.064 261.625 133.298 261.625C133.896 261.625 134.351 261.495 134.715 260.611L134.871 260.247L132.362 253.63H133.649L135.261 258.154C135.352 258.388 135.404 258.57 135.469 258.83H135.495C135.547 258.57 135.599 258.388 135.677 258.154L137.315 253.63ZM142.206 253.565C144.117 253.565 145.365 254.865 145.365 256.802C145.365 258.726 144.117 260.065 142.206 260.065C140.321 260.065 139.06 258.804 139.06 256.88C139.06 254.943 140.321 253.565 142.206 253.565ZM142.206 254.54C141.023 254.54 140.23 255.489 140.23 256.841C140.23 258.18 141.023 259.09 142.206 259.09C143.415 259.09 144.195 258.18 144.195 256.841C144.195 255.489 143.415 254.54 142.206 254.54ZM151.011 253.63H152.155V260H151.076L151.024 259.064C150.634 259.649 149.971 260.065 149.061 260.065C147.67 260.065 146.812 259.181 146.812 257.79V253.63H147.969V257.621C147.969 258.557 148.476 259.09 149.399 259.09C150.322 259.09 151.011 258.44 151.011 257.335V253.63ZM156.832 253.565C157.001 253.565 157.118 253.591 157.196 253.604L157.183 254.735C157.131 254.709 157.014 254.683 156.754 254.683C155.948 254.683 155.194 255.359 155.194 256.646V260H154.05V253.63H155.129L155.155 254.657C155.467 254.033 156 253.565 156.832 253.565ZM75.4163 269.565C77.1453 269.565 78.3153 270.8 78.3153 272.737C78.3153 274.7 77.1193 276.065 75.3383 276.065C74.2983 276.065 73.6223 275.636 73.2453 275.025L73.2193 276H72.1013V266.77H73.2453V270.696C73.6483 270.046 74.3763 269.565 75.4163 269.565ZM75.2603 275.09C76.4043 275.09 77.1453 274.141 77.1453 272.763C77.1453 271.411 76.4303 270.54 75.2863 270.54C73.8953 270.54 73.2453 271.723 73.2453 272.659V272.945C73.2453 273.907 73.8693 275.09 75.2603 275.09ZM83.9668 269.63H85.1108V276H84.0318L83.9798 275.064C83.5898 275.649 82.9268 276.065 82.0168 276.065C80.6258 276.065 79.7678 275.181 79.7678 273.79V269.63H80.9248V273.621C80.9248 274.557 81.4318 275.09 82.3548 275.09C83.2778 275.09 83.9668 274.44 83.9668 273.335V269.63ZM87.8636 271.359C87.8636 272.815 91.6466 271.71 91.6466 274.271C91.6466 275.324 90.7366 276.065 89.0986 276.065C87.3436 276.065 86.5896 275.363 86.5636 274.128L87.6166 274.141C87.6816 274.752 88.0716 275.09 89.1116 275.09C90.0996 275.09 90.5156 274.752 90.5156 274.271C90.5156 272.789 86.7326 273.842 86.7326 271.359C86.7326 270.306 87.6296 269.565 89.1766 269.565C90.7106 269.565 91.5036 270.267 91.5556 271.502L90.4896 271.489C90.4376 270.865 89.9566 270.54 89.1506 270.54C88.2796 270.54 87.8636 270.852 87.8636 271.359ZM94.5415 267.55C94.5415 268.005 94.1905 268.33 93.7485 268.33C93.3065 268.33 92.9555 268.005 92.9555 267.55C92.9555 267.108 93.3065 266.77 93.7485 266.77C94.1905 266.77 94.5415 267.108 94.5415 267.55ZM93.1375 276V269.63H94.2945V276H93.1375ZM99.369 269.565C100.773 269.565 101.67 270.423 101.67 271.983V276H100.513V272.217C100.513 271.138 100.006 270.54 99.057 270.54C98.03 270.54 97.341 271.216 97.341 272.295V276H96.197V269.63H97.276L97.328 270.579C97.731 269.994 98.407 269.565 99.369 269.565ZM109.048 272.828V273.114H104.29C104.381 274.323 105.07 275.09 106.188 275.09C107.306 275.09 107.735 274.505 107.852 273.985H109.009C108.762 275.142 107.878 276.065 106.175 276.065C104.186 276.065 103.107 274.7 103.107 272.828C103.107 270.917 104.368 269.565 106.149 269.565C107.93 269.565 109.048 270.774 109.048 272.828ZM106.162 270.54C105.187 270.54 104.498 271.203 104.316 272.269H107.891C107.748 271.125 107.124 270.54 106.162 270.54ZM111.413 271.359C111.413 272.815 115.196 271.71 115.196 274.271C115.196 275.324 114.286 276.065 112.648 276.065C110.893 276.065 110.139 275.363 110.113 274.128L111.166 274.141C111.231 274.752 111.621 275.09 112.661 275.09C113.649 275.09 114.065 274.752 114.065 274.271C114.065 272.789 110.282 273.842 110.282 271.359C110.282 270.306 111.179 269.565 112.726 269.565C114.26 269.565 115.053 270.267 115.105 271.502L114.039 271.489C113.987 270.865 113.506 270.54 112.7 270.54C111.829 270.54 111.413 270.852 111.413 271.359ZM117.545 271.359C117.545 272.815 121.328 271.71 121.328 274.271C121.328 275.324 120.418 276.065 118.78 276.065C117.025 276.065 116.271 275.363 116.245 274.128L117.298 274.141C117.363 274.752 117.753 275.09 118.793 275.09C119.781 275.09 120.197 274.752 120.197 274.271C120.197 272.789 116.414 273.842 116.414 271.359C116.414 270.306 117.311 269.565 118.858 269.565C120.392 269.565 121.185 270.267 121.237 271.502L120.171 271.489C120.119 270.865 119.638 270.54 118.832 270.54C117.961 270.54 117.545 270.852 117.545 271.359ZM128.597 269.565C128.766 269.565 128.883 269.591 128.961 269.604L128.948 270.735C128.896 270.709 128.779 270.683 128.519 270.683C127.713 270.683 126.959 271.359 126.959 272.646V276H125.815V269.63H126.894L126.92 270.657C127.232 270.033 127.765 269.565 128.597 269.565ZM135.492 272.828V273.114H130.734C130.825 274.323 131.514 275.09 132.632 275.09C133.75 275.09 134.179 274.505 134.296 273.985H135.453C135.206 275.142 134.322 276.065 132.619 276.065C130.63 276.065 129.551 274.7 129.551 272.828C129.551 270.917 130.812 269.565 132.593 269.565C134.374 269.565 135.492 270.774 135.492 272.828ZM132.606 270.54C131.631 270.54 130.942 271.203 130.76 272.269H134.335C134.192 271.125 133.568 270.54 132.606 270.54ZM139.587 276.065C137.65 276.065 136.61 274.713 136.61 272.841C136.61 270.93 137.845 269.565 139.652 269.565C141.316 269.565 142.291 270.501 142.46 271.957H141.238C141.108 271.164 140.627 270.54 139.665 270.54C138.521 270.54 137.78 271.437 137.78 272.815C137.78 274.18 138.456 275.09 139.639 275.09C140.627 275.09 141.108 274.466 141.238 273.712H142.46C142.265 275.129 141.277 276.065 139.587 276.065ZM146.649 269.565C148.56 269.565 149.808 270.865 149.808 272.802C149.808 274.726 148.56 276.065 146.649 276.065C144.764 276.065 143.503 274.804 143.503 272.88C143.503 270.943 144.764 269.565 146.649 269.565ZM146.649 270.54C145.466 270.54 144.673 271.489 144.673 272.841C144.673 274.18 145.466 275.09 146.649 275.09C147.858 275.09 148.638 274.18 148.638 272.841C148.638 271.489 147.858 270.54 146.649 270.54ZM154.102 269.565C154.271 269.565 154.388 269.591 154.466 269.604L154.453 270.735C154.401 270.709 154.284 270.683 154.024 270.683C153.218 270.683 152.464 271.359 152.464 272.646V276H151.32V269.63H152.399L152.425 270.657C152.737 270.033 153.27 269.565 154.102 269.565ZM160.126 266.77H161.27V276H160.152L160.126 274.934C159.723 275.584 158.995 276.065 157.955 276.065C156.226 276.065 155.056 274.83 155.056 272.893C155.056 270.93 156.252 269.565 158.033 269.565C159.073 269.565 159.749 269.994 160.126 270.605V266.77ZM158.085 275.09C159.476 275.09 160.126 273.907 160.126 272.971V272.685C160.126 271.723 159.502 270.54 158.111 270.54C156.967 270.54 156.226 271.489 156.226 272.867C156.226 274.219 156.941 275.09 158.085 275.09ZM164.023 271.359C164.023 272.815 167.806 271.71 167.806 274.271C167.806 275.324 166.896 276.065 165.258 276.065C163.503 276.065 162.749 275.363 162.723 274.128L163.776 274.141C163.841 274.752 164.231 275.09 165.271 275.09C166.259 275.09 166.675 274.752 166.675 274.271C166.675 272.789 162.892 273.842 162.892 271.359C162.892 270.306 163.789 269.565 165.336 269.565C166.87 269.565 167.663 270.267 167.715 271.502L166.649 271.489C166.597 270.865 166.116 270.54 165.31 270.54C164.439 270.54 164.023 270.852 164.023 271.359Z" fill="#808691"/>
<rect x="213.5" y="156" width="155.5" height="140" rx="10" fill="#FFF0F4"/>
<rect x="269.25" y="172" width="44" height="44" rx="12" fill="#D595A6"/>
<path d="M294.583 185.667H287.917C285 185.667 283.75 187.333 283.75 189.833V198.167C283.75 200.667 285 202.333 287.917 202.333H294.583C297.5 202.333 298.75 200.667 298.75 198.167V189.833C298.75 187.333 297.5 185.667 294.583 185.667ZM287.917 194.208H291.25C291.592 194.208 291.875 194.492 291.875 194.833C291.875 195.175 291.592 195.458 291.25 195.458H287.917C287.575 195.458 287.292 195.175 287.292 194.833C287.292 194.492 287.575 194.208 287.917 194.208ZM294.583 198.792H287.917C287.575 198.792 287.292 198.508 287.292 198.167C287.292 197.825 287.575 197.542 287.917 197.542H294.583C294.925 197.542 295.208 197.825 295.208 198.167C295.208 198.508 294.925 198.792 294.583 198.792ZM296.667 191.708H295C293.733 191.708 292.708 190.683 292.708 189.417V187.75C292.708 187.408 292.992 187.125 293.333 187.125C293.675 187.125 293.958 187.408 293.958 187.75V189.417C293.958 189.992 294.425 190.458 295 190.458H296.667C297.008 190.458 297.292 190.742 297.292 191.083C297.292 191.425 297.008 191.708 296.667 191.708Z" fill="#FFF0F4"/>
<path d="M262.334 238V228.396H264.042V238H262.334ZM269.91 231.07C271.436 231.07 272.332 232.106 272.332 233.688V238H270.61V234.08C270.61 233.114 270.162 232.54 269.294 232.54C268.37 232.54 267.768 233.17 267.768 234.108V238H266.06V231.14H267.698L267.754 232.134C268.16 231.504 268.874 231.07 269.91 231.07ZM278.43 231.14H280.152L277.604 238H275.714L273.152 231.14H275L276.498 235.578C276.568 235.788 276.624 236.026 276.694 236.348H276.736C276.792 236.026 276.848 235.788 276.918 235.578L278.43 231.14ZM287.233 234.612V234.962H282.319C282.445 236.082 283.103 236.712 284.083 236.712C285.105 236.712 285.483 236.18 285.595 235.76H287.205C286.967 236.964 286.015 238.07 284.013 238.07C281.913 238.07 280.639 236.614 280.639 234.584C280.639 232.512 282.067 231.07 284.027 231.07C286.057 231.07 287.233 232.47 287.233 234.612ZM284.041 232.386C283.187 232.386 282.529 232.904 282.347 233.912H285.609C285.469 232.862 284.895 232.386 284.041 232.386ZM292.524 231.07C294.05 231.07 294.946 232.106 294.946 233.688V238H293.224V234.08C293.224 233.114 292.776 232.54 291.908 232.54C290.984 232.54 290.382 233.17 290.382 234.108V238H288.674V231.14H290.312L290.368 232.134C290.774 231.504 291.488 231.07 292.524 231.07ZM300.831 236.474L300.887 237.888C300.649 237.986 300.215 238.07 299.725 238.07C297.989 238.07 296.995 237.062 296.995 235.536V232.526H295.973V231.14H297.093V229.166H298.703V231.14H300.789V232.512H298.703V235.494C298.703 236.166 299.025 236.628 299.977 236.628C300.285 236.628 300.565 236.586 300.831 236.474ZM305.057 231.07C307.157 231.07 308.543 232.47 308.543 234.556C308.543 236.614 307.157 238.07 305.057 238.07C302.971 238.07 301.571 236.684 301.571 234.626C301.571 232.554 302.971 231.07 305.057 231.07ZM305.057 232.484C303.993 232.484 303.307 233.338 303.307 234.584C303.307 235.816 303.993 236.656 305.057 236.656C306.135 236.656 306.807 235.816 306.807 234.584C306.807 233.338 306.135 232.484 305.057 232.484ZM313.418 231.07C313.586 231.07 313.754 231.098 313.838 231.112L313.824 232.792C313.726 232.75 313.614 232.722 313.348 232.722C312.508 232.722 311.794 233.296 311.682 234.332V238H309.974V231.14H311.612L311.64 232.246C311.976 231.56 312.536 231.07 313.418 231.07ZM319.458 231.14H321.194L318.66 238L318.464 238.518C317.82 240.226 317.12 240.884 315.706 240.884C315.286 240.884 314.852 240.828 314.6 240.744L314.712 239.302C314.922 239.386 315.104 239.442 315.37 239.442C316 239.442 316.504 239.26 316.784 238.462L316.896 238.168L314.25 231.14H316.112L317.568 235.606C317.638 235.816 317.694 236.054 317.764 236.376H317.806C317.862 236.054 317.918 235.802 317.988 235.606L319.458 231.14Z" fill="#30333B"/>
<path d="M261.714 251.082H263.547L263.534 260H262.429V252.083L259.803 260H258.776L256.15 252.122V260H255.045L255.032 251.082H256.852L259.283 258.609L261.714 251.082ZM271.387 258.96L271.478 259.961C271.257 260.026 271.023 260.065 270.75 260.065C270.087 260.065 269.645 259.649 269.567 259.025C269.333 259.389 268.748 260.065 267.331 260.065C265.888 260.065 265.173 259.35 265.173 258.336C265.173 256.958 266.447 256.386 268.215 256.386H269.554V255.97C269.554 255.086 269.008 254.54 267.981 254.54C267.071 254.54 266.512 254.969 266.434 255.736H265.316C265.42 254.358 266.499 253.565 268.059 253.565C269.736 253.565 270.698 254.462 270.698 255.996V258.596C270.698 258.869 270.854 259.025 271.062 259.025C271.179 259.025 271.257 259.012 271.387 258.96ZM267.565 259.142C268.852 259.142 269.554 258.245 269.554 257.66V257.218H268.15C266.954 257.218 266.343 257.582 266.343 258.284C266.343 258.817 266.707 259.142 267.565 259.142ZM275.871 253.565C277.275 253.565 278.172 254.423 278.172 255.983V260H277.015V256.217C277.015 255.138 276.508 254.54 275.559 254.54C274.532 254.54 273.843 255.216 273.843 256.295V260H272.699V253.63H273.778L273.83 254.579C274.233 253.994 274.909 253.565 275.871 253.565ZM285.784 258.96L285.875 259.961C285.654 260.026 285.42 260.065 285.147 260.065C284.484 260.065 284.042 259.649 283.964 259.025C283.73 259.389 283.145 260.065 281.728 260.065C280.285 260.065 279.57 259.35 279.57 258.336C279.57 256.958 280.844 256.386 282.612 256.386H283.951V255.97C283.951 255.086 283.405 254.54 282.378 254.54C281.468 254.54 280.909 254.969 280.831 255.736H279.713C279.817 254.358 280.896 253.565 282.456 253.565C284.133 253.565 285.095 254.462 285.095 255.996V258.596C285.095 258.869 285.251 259.025 285.459 259.025C285.576 259.025 285.654 259.012 285.784 258.96ZM281.962 259.142C283.249 259.142 283.951 258.245 283.951 257.66V257.218H282.547C281.351 257.218 280.74 257.582 280.74 258.284C280.74 258.817 281.104 259.142 281.962 259.142ZM291.788 253.63H292.867V260.13C292.867 261.612 291.788 262.73 289.799 262.73C288.07 262.73 287.082 262.028 286.926 260.689H288.07C288.213 261.456 288.759 261.755 289.786 261.755C291.125 261.755 291.723 261.014 291.723 260.13V259.025C291.346 259.636 290.683 260.065 289.656 260.065C287.901 260.065 286.705 258.765 286.705 256.802C286.705 254.865 287.901 253.565 289.656 253.565C290.696 253.565 291.359 254.007 291.736 254.631L291.788 253.63ZM289.734 259.09C291.099 259.09 291.723 257.907 291.723 256.945V256.685C291.723 255.723 291.099 254.54 289.734 254.54C288.616 254.54 287.875 255.45 287.875 256.802C287.875 258.18 288.616 259.09 289.734 259.09ZM300.314 256.828V257.114H295.556C295.647 258.323 296.336 259.09 297.454 259.09C298.572 259.09 299.001 258.505 299.118 257.985H300.275C300.028 259.142 299.144 260.065 297.441 260.065C295.452 260.065 294.373 258.7 294.373 256.828C294.373 254.917 295.634 253.565 297.415 253.565C299.196 253.565 300.314 254.774 300.314 256.828ZM297.428 254.54C296.453 254.54 295.764 255.203 295.582 256.269H299.157C299.014 255.125 298.39 254.54 297.428 254.54ZM308.815 253.63H309.985L307.567 260L307.294 260.715C306.735 262.197 306.124 262.665 305.045 262.665C304.681 262.665 304.304 262.6 304.096 262.509L304.187 261.495C304.408 261.586 304.564 261.625 304.798 261.625C305.396 261.625 305.851 261.495 306.215 260.611L306.371 260.247L303.862 253.63H305.149L306.761 258.154C306.852 258.388 306.904 258.57 306.969 258.83H306.995C307.047 258.57 307.099 258.388 307.177 258.154L308.815 253.63ZM313.706 253.565C315.617 253.565 316.865 254.865 316.865 256.802C316.865 258.726 315.617 260.065 313.706 260.065C311.821 260.065 310.56 258.804 310.56 256.88C310.56 254.943 311.821 253.565 313.706 253.565ZM313.706 254.54C312.523 254.54 311.73 255.489 311.73 256.841C311.73 258.18 312.523 259.09 313.706 259.09C314.915 259.09 315.695 258.18 315.695 256.841C315.695 255.489 314.915 254.54 313.706 254.54ZM322.511 253.63H323.655V260H322.576L322.524 259.064C322.134 259.649 321.471 260.065 320.561 260.065C319.17 260.065 318.312 259.181 318.312 257.79V253.63H319.469V257.621C319.469 258.557 319.976 259.09 320.899 259.09C321.822 259.09 322.511 258.44 322.511 257.335V253.63ZM328.332 253.565C328.501 253.565 328.618 253.591 328.696 253.604L328.683 254.735C328.631 254.709 328.514 254.683 328.254 254.683C327.448 254.683 326.694 255.359 326.694 256.646V260H325.55V253.63H326.629L326.655 254.657C326.967 254.033 327.5 253.565 328.332 253.565ZM266.632 267.55C266.632 268.005 266.281 268.33 265.839 268.33C265.397 268.33 265.046 268.005 265.046 267.55C265.046 267.108 265.397 266.77 265.839 266.77C266.281 266.77 266.632 267.108 266.632 267.55ZM265.228 276V269.63H266.385V276H265.228ZM271.459 269.565C272.863 269.565 273.76 270.423 273.76 271.983V276H272.603V272.217C272.603 271.138 272.096 270.54 271.147 270.54C270.12 270.54 269.431 271.216 269.431 272.295V276H268.287V269.63H269.366L269.418 270.579C269.821 269.994 270.497 269.565 271.459 269.565ZM279.686 269.63H280.856L278.412 276H277.164L274.681 269.63H275.968L277.606 274.154C277.697 274.388 277.749 274.57 277.814 274.83H277.84C277.892 274.57 277.944 274.388 278.022 274.154L279.686 269.63ZM287.397 272.828V273.114H282.639C282.73 274.323 283.419 275.09 284.537 275.09C285.655 275.09 286.084 274.505 286.201 273.985H287.358C287.111 275.142 286.227 276.065 284.524 276.065C282.535 276.065 281.456 274.7 281.456 272.828C281.456 270.917 282.717 269.565 284.498 269.565C286.279 269.565 287.397 270.774 287.397 272.828ZM284.511 270.54C283.536 270.54 282.847 271.203 282.665 272.269H286.24C286.097 271.125 285.473 270.54 284.511 270.54ZM292.077 269.565C293.481 269.565 294.378 270.423 294.378 271.983V276H293.221V272.217C293.221 271.138 292.714 270.54 291.765 270.54C290.738 270.54 290.049 271.216 290.049 272.295V276H288.905V269.63H289.984L290.036 270.579C290.439 269.994 291.115 269.565 292.077 269.565ZM299.742 274.908L299.794 275.909C299.586 276 299.196 276.065 298.793 276.065C297.311 276.065 296.427 275.233 296.427 273.907V270.618H295.465V269.63H296.492V267.732H297.571V269.63H299.638V270.592H297.571V273.907C297.571 274.544 297.87 275.064 298.91 275.064C299.196 275.064 299.469 275.025 299.742 274.908ZM303.607 269.565C305.518 269.565 306.766 270.865 306.766 272.802C306.766 274.726 305.518 276.065 303.607 276.065C301.722 276.065 300.461 274.804 300.461 272.88C300.461 270.943 301.722 269.565 303.607 269.565ZM303.607 270.54C302.424 270.54 301.631 271.489 301.631 272.841C301.631 274.18 302.424 275.09 303.607 275.09C304.816 275.09 305.596 274.18 305.596 272.841C305.596 271.489 304.816 270.54 303.607 270.54ZM311.06 269.565C311.229 269.565 311.346 269.591 311.424 269.604L311.411 270.735C311.359 270.709 311.242 270.683 310.982 270.683C310.176 270.683 309.422 271.359 309.422 272.646V276H308.278V269.63H309.357L309.383 270.657C309.695 270.033 310.228 269.565 311.06 269.565ZM316.857 269.63H318.027L315.609 276L315.336 276.715C314.777 278.197 314.166 278.665 313.087 278.665C312.723 278.665 312.346 278.6 312.138 278.509L312.229 277.495C312.45 277.586 312.606 277.625 312.84 277.625C313.438 277.625 313.893 277.495 314.257 276.611L314.413 276.247L311.904 269.63H313.191L314.803 274.154C314.894 274.388 314.946 274.57 315.011 274.83H315.037C315.089 274.57 315.141 274.388 315.219 274.154L316.857 269.63Z" fill="#808691"/>
<rect x="42" y="312" width="155.5" height="140" rx="10" fill="#DBFFF2"/>
<rect x="97.75" y="328" width="44" height="44" rx="12" fill="#19A97B"/>
<path d="M128.083 358.333H111.417C111.075 358.333 110.792 358.05 110.792 357.708C110.792 357.367 111.075 357.083 111.417 357.083H128.083C128.425 357.083 128.708 357.367 128.708 357.708C128.708 358.05 128.425 358.333 128.083 358.333Z" fill="#DBFFF2"/>
<path d="M117.875 343.333V358.333H121.625V343.333C121.625 342.417 121.25 341.667 120.125 341.667H119.375C118.25 341.667 117.875 342.417 117.875 343.333Z" fill="#DBFFF2"/>
<path d="M112.25 348.333V358.333H115.583V348.333C115.583 347.417 115.25 346.667 114.25 346.667H113.583C112.583 346.667 112.25 347.417 112.25 348.333Z" fill="#DBFFF2"/>
<path d="M123.917 352.5V358.333H127.25V352.5C127.25 351.583 126.917 350.833 125.917 350.833H125.25C124.25 350.833 123.917 351.583 123.917 352.5Z" fill="#DBFFF2"/>
<path d="M97.5609 394L96.8189 391.816H92.8149L92.0729 394H90.3509L93.8229 384.396H95.8109L99.2829 394H97.5609ZM93.3049 390.416H96.3289L94.8169 385.992L93.3049 390.416ZM104.159 387.07C105.685 387.07 106.581 388.106 106.581 389.688V394H104.859V390.08C104.859 389.114 104.411 388.54 103.543 388.54C102.619 388.54 102.017 389.17 102.017 390.108V394H100.309V387.14H101.947L102.003 388.134C102.409 387.504 103.123 387.07 104.159 387.07ZM114.817 392.558L114.929 393.944C114.663 394.014 114.355 394.07 114.005 394.07C113.263 394.07 112.717 393.692 112.521 392.95C112.297 393.37 111.695 394.07 110.225 394.07C108.699 394.07 107.901 393.314 107.901 392.208C107.901 390.584 109.511 390.052 111.387 390.052H112.451V389.702C112.451 388.904 111.975 388.4 111.023 388.4C110.211 388.4 109.707 388.792 109.637 389.464H108.069C108.181 387.924 109.371 387.07 111.121 387.07C113.067 387.07 114.117 388.092 114.117 389.8V392.208C114.117 392.474 114.257 392.628 114.467 392.628C114.579 392.628 114.663 392.614 114.817 392.558ZM110.673 392.796C111.793 392.796 112.451 392.082 112.451 391.494V391.046H111.303C110.183 391.046 109.567 391.382 109.567 392.026C109.567 392.516 109.917 392.796 110.673 392.796ZM118.398 392.558L118.51 393.944C118.244 394.014 117.95 394.07 117.572 394.07C116.55 394.07 116.004 393.44 116.004 392.348V384.06H117.698V392.208C117.698 392.474 117.852 392.628 118.062 392.628C118.174 392.628 118.244 392.614 118.398 392.558ZM124.148 387.14H125.884L123.35 394L123.154 394.518C122.51 396.226 121.81 396.884 120.396 396.884C119.976 396.884 119.542 396.828 119.29 396.744L119.402 395.302C119.612 395.386 119.794 395.442 120.06 395.442C120.69 395.442 121.194 395.26 121.474 394.462L121.586 394.168L118.94 387.14H120.802L122.258 391.606C122.328 391.816 122.384 392.054 122.454 392.376H122.496C122.552 392.054 122.608 391.802 122.678 391.606L124.148 387.14ZM131.129 392.474L131.185 393.888C130.947 393.986 130.513 394.07 130.023 394.07C128.287 394.07 127.293 393.062 127.293 391.536V388.526H126.271V387.14H127.391V385.166H129.001V387.14H131.087V388.512H129.001V391.494C129.001 392.166 129.323 392.628 130.275 392.628C130.583 392.628 130.863 392.586 131.129 392.474ZM134.344 384.914C134.344 385.558 133.854 386.006 133.224 386.006C132.594 386.006 132.104 385.558 132.104 384.914C132.104 384.298 132.594 383.836 133.224 383.836C133.854 383.836 134.344 384.298 134.344 384.914ZM132.356 394V387.14H134.064V394H132.356ZM138.824 394.07C136.752 394.07 135.492 392.628 135.492 390.598C135.492 388.526 136.892 387.07 138.866 387.07C140.826 387.07 141.834 388.232 142.002 389.772H140.322C140.196 389.058 139.776 388.484 138.908 388.484C137.9 388.484 137.228 389.254 137.228 390.57C137.228 391.886 137.858 392.656 138.894 392.656C139.804 392.656 140.196 392.096 140.322 391.41H142.002C141.82 392.908 140.798 394.07 138.824 394.07ZM148.71 392.082C148.724 393.314 147.618 394.07 145.798 394.07C143.894 394.07 142.956 393.286 142.942 391.9L144.426 391.914C144.468 392.502 144.86 392.824 145.798 392.824C146.68 392.824 147.058 392.558 147.058 392.124C147.058 390.738 143.096 391.816 143.096 389.072C143.096 387.84 144.174 387.07 145.924 387.07C147.646 387.07 148.584 387.854 148.612 389.212H147.114C147.072 388.61 146.638 388.316 145.91 388.316C145.112 388.316 144.748 388.596 144.748 389.03C144.748 390.388 148.71 389.254 148.71 392.082Z" fill="#30333B"/>
<path d="M73.3595 411.359H77.1165V416H76.2325V414.453C75.6995 415.402 74.7375 416.078 73.2295 416.078C70.8375 416.078 69.1995 414.362 69.1995 411.489C69.1995 408.824 70.8765 407.004 73.3725 407.004C75.6735 407.004 76.8955 408.317 77.0775 410.007H75.9075C75.7515 408.967 75.0495 408.018 73.3855 408.018C71.5655 408.018 70.3565 409.409 70.3565 411.489C70.3565 413.764 71.5655 415.064 73.2425 415.064C75.0495 415.064 76.0505 413.79 76.1675 412.594V412.334H73.3595V411.359ZM84.3936 412.828V413.114H79.6356C79.7266 414.323 80.4156 415.09 81.5336 415.09C82.6516 415.09 83.0806 414.505 83.1976 413.985H84.3546C84.1076 415.142 83.2236 416.065 81.5206 416.065C79.5316 416.065 78.4526 414.7 78.4526 412.828C78.4526 410.917 79.7136 409.565 81.4946 409.565C83.2756 409.565 84.3936 410.774 84.3936 412.828ZM81.5076 410.54C80.5326 410.54 79.8436 411.203 79.6616 412.269H83.2366C83.0936 411.125 82.4696 410.54 81.5076 410.54ZM89.4009 414.908L89.4529 415.909C89.2449 416 88.8549 416.065 88.4519 416.065C86.9699 416.065 86.0859 415.233 86.0859 413.907V410.618H85.1239V409.63H86.1509V407.732H87.2299V409.63H89.2969V410.592H87.2299V413.907C87.2299 414.544 87.5289 415.064 88.5689 415.064C88.8549 415.064 89.1279 415.025 89.4009 414.908ZM97.6043 409.63H98.7743L96.3303 416H95.0823L92.5993 409.63H93.8863L95.5243 414.154C95.6153 414.388 95.6673 414.57 95.7323 414.83H95.7583C95.8103 414.57 95.8623 414.388 95.9403 414.154L97.6043 409.63ZM101.346 407.55C101.346 408.005 100.995 408.33 100.553 408.33C100.111 408.33 99.7602 408.005 99.7602 407.55C99.7602 407.108 100.111 406.77 100.553 406.77C100.995 406.77 101.346 407.108 101.346 407.55ZM99.9422 416V409.63H101.099V416H99.9422ZM106.616 414.908L106.668 415.909C106.46 416 106.07 416.065 105.667 416.065C104.185 416.065 103.301 415.233 103.301 413.907V410.618H102.339V409.63H103.366V407.732H104.445V409.63H106.512V410.592H104.445V413.907C104.445 414.544 104.744 415.064 105.784 415.064C106.07 415.064 106.343 415.025 106.616 414.908ZM113.611 414.96L113.702 415.961C113.481 416.026 113.247 416.065 112.974 416.065C112.311 416.065 111.869 415.649 111.791 415.025C111.557 415.389 110.972 416.065 109.555 416.065C108.112 416.065 107.397 415.35 107.397 414.336C107.397 412.958 108.671 412.386 110.439 412.386H111.778V411.97C111.778 411.086 111.232 410.54 110.205 410.54C109.295 410.54 108.736 410.969 108.658 411.736H107.54C107.644 410.358 108.723 409.565 110.283 409.565C111.96 409.565 112.922 410.462 112.922 411.996V414.596C112.922 414.869 113.078 415.025 113.286 415.025C113.403 415.025 113.481 415.012 113.611 414.96ZM109.789 415.142C111.076 415.142 111.778 414.245 111.778 413.66V413.218H110.374C109.178 413.218 108.567 413.582 108.567 414.284C108.567 414.817 108.931 415.142 109.789 415.142ZM116.717 414.96L116.808 415.961C116.587 416.026 116.353 416.065 116.08 416.065C115.339 416.065 114.884 415.558 114.884 414.817V406.77H116.028V414.596C116.028 414.869 116.197 415.025 116.418 415.025C116.522 415.025 116.587 415.012 116.717 414.96ZM124.484 409.565C126.213 409.565 127.383 410.8 127.383 412.737C127.383 414.7 126.187 416.065 124.406 416.065C123.366 416.065 122.69 415.636 122.313 415.025L122.287 416H121.169V406.77H122.313V410.696C122.716 410.046 123.444 409.565 124.484 409.565ZM124.328 415.09C125.472 415.09 126.213 414.141 126.213 412.763C126.213 411.411 125.498 410.54 124.354 410.54C122.963 410.54 122.313 411.723 122.313 412.659V412.945C122.313 413.907 122.937 415.09 124.328 415.09ZM133.034 409.63H134.178V416H133.099L133.047 415.064C132.657 415.649 131.994 416.065 131.084 416.065C129.693 416.065 128.835 415.181 128.835 413.79V409.63H129.992V413.621C129.992 414.557 130.499 415.09 131.422 415.09C132.345 415.09 133.034 414.44 133.034 413.335V409.63ZM136.931 411.359C136.931 412.815 140.714 411.71 140.714 414.271C140.714 415.324 139.804 416.065 138.166 416.065C136.411 416.065 135.657 415.363 135.631 414.128L136.684 414.141C136.749 414.752 137.139 415.09 138.179 415.09C139.167 415.09 139.583 414.752 139.583 414.271C139.583 412.789 135.8 413.842 135.8 411.359C135.8 410.306 136.697 409.565 138.244 409.565C139.778 409.565 140.571 410.267 140.623 411.502L139.557 411.489C139.505 410.865 139.024 410.54 138.218 410.54C137.347 410.54 136.931 410.852 136.931 411.359ZM143.609 407.55C143.609 408.005 143.258 408.33 142.816 408.33C142.374 408.33 142.023 408.005 142.023 407.55C142.023 407.108 142.374 406.77 142.816 406.77C143.258 406.77 143.609 407.108 143.609 407.55ZM142.205 416V409.63H143.362V416H142.205ZM148.436 409.565C149.84 409.565 150.737 410.423 150.737 411.983V416H149.58V412.217C149.58 411.138 149.073 410.54 148.124 410.54C147.097 410.54 146.408 411.216 146.408 412.295V416H145.264V409.63H146.343L146.395 410.579C146.798 409.994 147.474 409.565 148.436 409.565ZM158.115 412.828V413.114H153.357C153.448 414.323 154.137 415.09 155.255 415.09C156.373 415.09 156.802 414.505 156.919 413.985H158.076C157.829 415.142 156.945 416.065 155.242 416.065C153.253 416.065 152.174 414.7 152.174 412.828C152.174 410.917 153.435 409.565 155.216 409.565C156.997 409.565 158.115 410.774 158.115 412.828ZM155.229 410.54C154.254 410.54 153.565 411.203 153.383 412.269H156.958C156.815 411.125 156.191 410.54 155.229 410.54ZM160.481 411.359C160.481 412.815 164.264 411.71 164.264 414.271C164.264 415.324 163.354 416.065 161.716 416.065C159.961 416.065 159.207 415.363 159.181 414.128L160.234 414.141C160.299 414.752 160.689 415.09 161.729 415.09C162.717 415.09 163.133 414.752 163.133 414.271C163.133 412.789 159.35 413.842 159.35 411.359C159.35 410.306 160.247 409.565 161.794 409.565C163.328 409.565 164.121 410.267 164.173 411.502L163.107 411.489C163.055 410.865 162.574 410.54 161.768 410.54C160.897 410.54 160.481 410.852 160.481 411.359ZM166.613 411.359C166.613 412.815 170.396 411.71 170.396 414.271C170.396 415.324 169.486 416.065 167.848 416.065C166.093 416.065 165.339 415.363 165.313 414.128L166.366 414.141C166.431 414.752 166.821 415.09 167.861 415.09C168.849 415.09 169.265 414.752 169.265 414.271C169.265 412.789 165.482 413.842 165.482 411.359C165.482 410.306 166.379 409.565 167.926 409.565C169.46 409.565 170.253 410.267 170.305 411.502L169.239 411.489C169.187 410.865 168.706 410.54 167.9 410.54C167.029 410.54 166.613 410.852 166.613 411.359ZM103.016 423.55C103.016 424.005 102.665 424.33 102.223 424.33C101.781 424.33 101.43 424.005 101.43 423.55C101.43 423.108 101.781 422.77 102.223 422.77C102.665 422.77 103.016 423.108 103.016 423.55ZM101.612 432V425.63H102.769V432H101.612ZM107.843 425.565C109.247 425.565 110.144 426.423 110.144 427.983V432H108.987V428.217C108.987 427.138 108.48 426.54 107.531 426.54C106.504 426.54 105.815 427.216 105.815 428.295V432H104.671V425.63H105.75L105.802 426.579C106.205 425.994 106.881 425.565 107.843 425.565ZM112.829 427.359C112.829 428.815 116.612 427.71 116.612 430.271C116.612 431.324 115.702 432.065 114.064 432.065C112.309 432.065 111.555 431.363 111.529 430.128L112.582 430.141C112.647 430.752 113.037 431.09 114.077 431.09C115.065 431.09 115.481 430.752 115.481 430.271C115.481 428.789 111.698 429.842 111.698 427.359C111.698 426.306 112.595 425.565 114.142 425.565C115.676 425.565 116.469 426.267 116.521 427.502L115.455 427.489C115.403 426.865 114.922 426.54 114.116 426.54C113.245 426.54 112.829 426.852 112.829 427.359ZM119.507 423.55C119.507 424.005 119.156 424.33 118.714 424.33C118.272 424.33 117.921 424.005 117.921 423.55C117.921 423.108 118.272 422.77 118.714 422.77C119.156 422.77 119.507 423.108 119.507 423.55ZM118.103 432V425.63H119.26V432H118.103ZM125.855 425.63H126.934V432.13C126.934 433.612 125.855 434.73 123.866 434.73C122.137 434.73 121.149 434.028 120.993 432.689H122.137C122.28 433.456 122.826 433.755 123.853 433.755C125.192 433.755 125.79 433.014 125.79 432.13V431.025C125.413 431.636 124.75 432.065 123.723 432.065C121.968 432.065 120.772 430.765 120.772 428.802C120.772 426.865 121.968 425.565 123.723 425.565C124.763 425.565 125.426 426.007 125.803 426.631L125.855 425.63ZM123.801 431.09C125.166 431.09 125.79 429.907 125.79 428.945V428.685C125.79 427.723 125.166 426.54 123.801 426.54C122.683 426.54 121.942 427.45 121.942 428.802C121.942 430.18 122.683 431.09 123.801 431.09ZM132.444 430.908L132.496 431.909C132.288 432 131.898 432.065 131.495 432.065C130.013 432.065 129.129 431.233 129.129 429.907V426.618H128.167V425.63H129.194V423.732H130.273V425.63H132.34V426.592H130.273V429.907C130.273 430.544 130.572 431.064 131.612 431.064C131.898 431.064 132.171 431.025 132.444 430.908ZM134.513 427.359C134.513 428.815 138.296 427.71 138.296 430.271C138.296 431.324 137.386 432.065 135.748 432.065C133.993 432.065 133.239 431.363 133.213 430.128L134.266 430.141C134.331 430.752 134.721 431.09 135.761 431.09C136.749 431.09 137.165 430.752 137.165 430.271C137.165 428.789 133.382 429.842 133.382 427.359C133.382 426.306 134.279 425.565 135.826 425.565C137.36 425.565 138.153 426.267 138.205 427.502L137.139 427.489C137.087 426.865 136.606 426.54 135.8 426.54C134.929 426.54 134.513 426.852 134.513 427.359Z" fill="#808691"/>
<rect x="213.5" y="312" width="155.5" height="140" rx="10" fill="#FFECDB"/>
<rect x="269.25" y="328" width="44" height="44" rx="12" fill="#944A05"/>
<path d="M285.417 352.5C284.633 352.5 283.908 352.775 283.333 353.233C282.567 353.842 282.083 354.783 282.083 355.833C282.083 357.675 283.575 359.167 285.417 359.167C286.258 359.167 287.025 358.85 287.617 358.333C288.308 357.725 288.75 356.833 288.75 355.833C288.75 353.992 287.258 352.5 285.417 352.5ZM286.25 356.042C286.25 356.258 286.133 356.467 285.95 356.575L284.908 357.2C284.808 357.267 284.692 357.292 284.583 357.292C284.375 357.292 284.167 357.183 284.05 356.992C283.875 356.692 283.967 356.308 284.267 356.133L285.008 355.692V354.792C285 354.45 285.283 354.167 285.625 354.167C285.967 354.167 286.25 354.45 286.25 354.792V356.042Z" fill="#FFECDB"/>
<path d="M293.625 343.292V346.458H292.375V343.292C292.375 343.067 292.175 342.958 292.042 342.958C292 342.958 291.958 342.967 291.917 342.983L285.308 345.475C284.867 345.642 284.583 346.058 284.583 346.533V347.092C283.825 347.658 283.333 348.567 283.333 349.592V346.533C283.333 345.542 283.942 344.658 284.867 344.308L291.483 341.808C291.667 341.742 291.858 341.708 292.042 341.708C292.875 341.708 293.625 342.383 293.625 343.292Z" fill="#FFECDB"/>
<path d="M299.167 352.083V352.917C299.167 353.142 298.992 353.325 298.759 353.333H297.542C297.1 353.333 296.7 353.008 296.667 352.575C296.642 352.317 296.742 352.075 296.909 351.908C297.059 351.75 297.267 351.667 297.492 351.667H298.75C298.992 351.675 299.167 351.858 299.167 352.083Z" fill="#FFECDB"/>
<path d="M297.483 350.792H298.333C298.792 350.792 299.167 350.417 299.167 349.958V349.592C299.167 347.867 297.758 346.458 296.033 346.458H286.467C285.758 346.458 285.108 346.692 284.583 347.092C283.825 347.658 283.333 348.567 283.333 349.592V351.075C283.333 351.392 283.667 351.592 283.967 351.492C284.433 351.333 284.925 351.25 285.417 351.25C287.942 351.25 290 353.308 290 355.833C290 356.433 289.842 357.092 289.592 357.675C289.458 357.975 289.667 358.333 289.992 358.333H296.033C297.758 358.333 299.167 356.925 299.167 355.2V355.042C299.167 354.583 298.792 354.208 298.333 354.208H297.608C296.808 354.208 296.042 353.717 295.833 352.942C295.667 352.308 295.867 351.692 296.283 351.292C296.592 350.975 297.017 350.792 297.483 350.792ZM292.917 350.625H288.75C288.408 350.625 288.125 350.342 288.125 350C288.125 349.658 288.408 349.375 288.75 349.375H292.917C293.258 349.375 293.542 349.658 293.542 350C293.542 350.342 293.258 350.625 292.917 350.625Z" fill="#FFECDB"/>
<path d="M236.354 384.396C239.098 384.396 240.988 386.174 240.988 389.198C240.988 392.222 239.098 394 236.354 394H232.7V384.396H236.354ZM236.354 392.572C238.062 392.572 239.266 391.396 239.266 389.198C239.266 387 238.062 385.838 236.354 385.838H234.408V392.558L236.354 392.572ZM248.699 390.612V390.962H243.785C243.911 392.082 244.569 392.712 245.549 392.712C246.571 392.712 246.949 392.18 247.061 391.76H248.671C248.433 392.964 247.481 394.07 245.479 394.07C243.379 394.07 242.105 392.614 242.105 390.584C242.105 388.512 243.533 387.07 245.493 387.07C247.523 387.07 248.699 388.47 248.699 390.612ZM245.507 388.386C244.653 388.386 243.995 388.904 243.813 389.912H247.075C246.935 388.862 246.361 388.386 245.507 388.386ZM254.031 387.07C255.809 387.07 257.055 388.33 257.055 390.472C257.055 392.586 255.837 394.07 253.961 394.07C252.911 394.07 252.225 393.622 251.833 392.978L251.791 394H250.139V384.06H251.847V388.148C252.267 387.532 252.981 387.07 254.031 387.07ZM253.639 392.628C254.647 392.628 255.333 391.788 255.333 390.528C255.333 389.296 254.675 388.512 253.653 388.512C252.449 388.512 251.847 389.52 251.847 390.36V390.766C251.847 391.648 252.463 392.628 253.639 392.628ZM262.598 392.474L262.654 393.888C262.416 393.986 261.982 394.07 261.492 394.07C259.756 394.07 258.762 393.062 258.762 391.536V388.526H257.74V387.14H258.86V385.166H260.47V387.14H262.556V388.512H260.47V391.494C260.47 392.166 260.792 392.628 261.744 392.628C262.052 392.628 262.332 392.586 262.598 392.474ZM275.009 387.07C276.535 387.07 277.389 388.12 277.389 389.66V394H275.667V390.038C275.667 389.072 275.191 388.54 274.407 388.54C273.539 388.54 272.965 389.156 272.965 390.108V394H271.257V390.038C271.257 389.086 270.781 388.54 269.983 388.54C269.129 388.54 268.555 389.156 268.555 390.108V394H266.847V387.14H268.485L268.541 388.134C268.947 387.504 269.619 387.07 270.571 387.07C271.677 387.07 272.433 387.63 272.769 388.484C273.133 387.672 273.875 387.07 275.009 387.07ZM285.62 392.558L285.732 393.944C285.466 394.014 285.158 394.07 284.808 394.07C284.066 394.07 283.52 393.692 283.324 392.95C283.1 393.37 282.498 394.07 281.028 394.07C279.502 394.07 278.704 393.314 278.704 392.208C278.704 390.584 280.314 390.052 282.19 390.052H283.254V389.702C283.254 388.904 282.778 388.4 281.826 388.4C281.014 388.4 280.51 388.792 280.44 389.464H278.872C278.984 387.924 280.174 387.07 281.924 387.07C283.87 387.07 284.92 388.092 284.92 389.8V392.208C284.92 392.474 285.06 392.628 285.27 392.628C285.382 392.628 285.466 392.614 285.62 392.558ZM281.476 392.796C282.596 392.796 283.254 392.082 283.254 391.494V391.046H282.106C280.986 391.046 280.37 391.382 280.37 392.026C280.37 392.516 280.72 392.796 281.476 392.796ZM290.698 387.07C292.224 387.07 293.12 388.106 293.12 389.688V394H291.398V390.08C291.398 389.114 290.95 388.54 290.082 388.54C289.158 388.54 288.556 389.17 288.556 390.108V394H286.848V387.14H288.486L288.542 388.134C288.948 387.504 289.662 387.07 290.698 387.07ZM301.356 392.558L301.468 393.944C301.202 394.014 300.894 394.07 300.544 394.07C299.802 394.07 299.256 393.692 299.06 392.95C298.836 393.37 298.234 394.07 296.764 394.07C295.238 394.07 294.44 393.314 294.44 392.208C294.44 390.584 296.05 390.052 297.926 390.052H298.99V389.702C298.99 388.904 298.514 388.4 297.562 388.4C296.75 388.4 296.246 388.792 296.176 389.464H294.608C294.72 387.924 295.91 387.07 297.66 387.07C299.606 387.07 300.656 388.092 300.656 389.8V392.208C300.656 392.474 300.796 392.628 301.006 392.628C301.118 392.628 301.202 392.614 301.356 392.558ZM297.212 392.796C298.332 392.796 298.99 392.082 298.99 391.494V391.046H297.842C296.722 391.046 296.106 391.382 296.106 392.026C296.106 392.516 296.456 392.796 297.212 392.796ZM307.457 387.14H309.081V394.042C309.081 395.68 307.849 396.954 305.637 396.954C303.775 396.954 302.599 396.226 302.445 394.714H304.069C304.195 395.372 304.713 395.624 305.637 395.624C306.813 395.624 307.387 394.938 307.387 394.098V392.978C306.995 393.622 306.323 394.056 305.273 394.056C303.425 394.056 302.207 392.628 302.207 390.57C302.207 388.4 303.565 387.07 305.315 387.07C306.365 387.07 307.037 387.49 307.401 388.092L307.457 387.14ZM305.609 392.628C306.757 392.628 307.387 391.648 307.387 390.752V390.388C307.387 389.52 306.785 388.512 305.609 388.512C304.615 388.512 303.929 389.324 303.929 390.57C303.929 391.802 304.615 392.628 305.609 392.628ZM317.099 390.612V390.962H312.185C312.311 392.082 312.969 392.712 313.949 392.712C314.971 392.712 315.349 392.18 315.461 391.76H317.071C316.833 392.964 315.881 394.07 313.879 394.07C311.779 394.07 310.505 392.614 310.505 390.584C310.505 388.512 311.933 387.07 313.893 387.07C315.923 387.07 317.099 388.47 317.099 390.612ZM313.907 388.386C313.053 388.386 312.395 388.904 312.213 389.912H315.475C315.335 388.862 314.761 388.386 313.907 388.386ZM326.702 387.07C328.228 387.07 329.082 388.12 329.082 389.66V394H327.36V390.038C327.36 389.072 326.884 388.54 326.1 388.54C325.232 388.54 324.658 389.156 324.658 390.108V394H322.95V390.038C322.95 389.086 322.474 388.54 321.676 388.54C320.822 388.54 320.248 389.156 320.248 390.108V394H318.54V387.14H320.178L320.234 388.134C320.64 387.504 321.312 387.07 322.264 387.07C323.37 387.07 324.126 387.63 324.462 388.484C324.826 387.672 325.568 387.07 326.702 387.07ZM337.033 390.612V390.962H332.119C332.245 392.082 332.903 392.712 333.883 392.712C334.905 392.712 335.283 392.18 335.395 391.76H337.005C336.767 392.964 335.815 394.07 333.813 394.07C331.713 394.07 330.439 392.614 330.439 390.584C330.439 388.512 331.867 387.07 333.827 387.07C335.857 387.07 337.033 388.47 337.033 390.612ZM333.841 388.386C332.987 388.386 332.329 388.904 332.147 389.912H335.409C335.269 388.862 334.695 388.386 333.841 388.386ZM342.323 387.07C343.849 387.07 344.745 388.106 344.745 389.688V394H343.023V390.08C343.023 389.114 342.575 388.54 341.707 388.54C340.783 388.54 340.181 389.17 340.181 390.108V394H338.473V387.14H340.111L340.167 388.134C340.573 387.504 341.287 387.07 342.323 387.07ZM350.631 392.474L350.687 393.888C350.449 393.986 350.015 394.07 349.525 394.07C347.789 394.07 346.795 393.062 346.795 391.536V388.526H345.773V387.14H346.893V385.166H348.503V387.14H350.589V388.512H348.503V391.494C348.503 392.166 348.825 392.628 349.777 392.628C350.085 392.628 350.365 392.586 350.631 392.474Z" fill="#30333B"/>
<path d="M247.051 407.082H248.884L248.871 416H247.766V408.083L245.14 416H244.113L241.487 408.122V416H240.382L240.369 407.082H242.189L244.62 414.609L247.051 407.082ZM256.724 414.96L256.815 415.961C256.594 416.026 256.36 416.065 256.087 416.065C255.424 416.065 254.982 415.649 254.904 415.025C254.67 415.389 254.085 416.065 252.668 416.065C251.225 416.065 250.51 415.35 250.51 414.336C250.51 412.958 251.784 412.386 253.552 412.386H254.891V411.97C254.891 411.086 254.345 410.54 253.318 410.54C252.408 410.54 251.849 410.969 251.771 411.736H250.653C250.757 410.358 251.836 409.565 253.396 409.565C255.073 409.565 256.035 410.462 256.035 411.996V414.596C256.035 414.869 256.191 415.025 256.399 415.025C256.516 415.025 256.594 415.012 256.724 414.96ZM252.902 415.142C254.189 415.142 254.891 414.245 254.891 413.66V413.218H253.487C252.291 413.218 251.68 413.582 251.68 414.284C251.68 414.817 252.044 415.142 252.902 415.142ZM261.208 409.565C262.612 409.565 263.509 410.423 263.509 411.983V416H262.352V412.217C262.352 411.138 261.845 410.54 260.896 410.54C259.869 410.54 259.18 411.216 259.18 412.295V416H258.036V409.63H259.115L259.167 410.579C259.57 409.994 260.246 409.565 261.208 409.565ZM271.121 414.96L271.212 415.961C270.991 416.026 270.757 416.065 270.484 416.065C269.821 416.065 269.379 415.649 269.301 415.025C269.067 415.389 268.482 416.065 267.065 416.065C265.622 416.065 264.907 415.35 264.907 414.336C264.907 412.958 266.181 412.386 267.949 412.386H269.288V411.97C269.288 411.086 268.742 410.54 267.715 410.54C266.805 410.54 266.246 410.969 266.168 411.736H265.05C265.154 410.358 266.233 409.565 267.793 409.565C269.47 409.565 270.432 410.462 270.432 411.996V414.596C270.432 414.869 270.588 415.025 270.796 415.025C270.913 415.025 270.991 415.012 271.121 414.96ZM267.299 415.142C268.586 415.142 269.288 414.245 269.288 413.66V413.218H267.884C266.688 413.218 266.077 413.582 266.077 414.284C266.077 414.817 266.441 415.142 267.299 415.142ZM277.125 409.63H278.204V416.13C278.204 417.612 277.125 418.73 275.136 418.73C273.407 418.73 272.419 418.028 272.263 416.689H273.407C273.55 417.456 274.096 417.755 275.123 417.755C276.462 417.755 277.06 417.014 277.06 416.13V415.025C276.683 415.636 276.02 416.065 274.993 416.065C273.238 416.065 272.042 414.765 272.042 412.802C272.042 410.865 273.238 409.565 274.993 409.565C276.033 409.565 276.696 410.007 277.073 410.631L277.125 409.63ZM275.071 415.09C276.436 415.09 277.06 413.907 277.06 412.945V412.685C277.06 411.723 276.436 410.54 275.071 410.54C273.953 410.54 273.212 411.45 273.212 412.802C273.212 414.18 273.953 415.09 275.071 415.09ZM285.651 412.828V413.114H280.893C280.984 414.323 281.673 415.09 282.791 415.09C283.909 415.09 284.338 414.505 284.455 413.985H285.612C285.365 415.142 284.481 416.065 282.778 416.065C280.789 416.065 279.71 414.7 279.71 412.828C279.71 410.917 280.971 409.565 282.752 409.565C284.533 409.565 285.651 410.774 285.651 412.828ZM282.765 410.54C281.79 410.54 281.101 411.203 280.919 412.269H284.494C284.351 411.125 283.727 410.54 282.765 410.54ZM295.706 412.828V413.114H290.948C291.039 414.323 291.728 415.09 292.846 415.09C293.964 415.09 294.393 414.505 294.51 413.985H295.667C295.42 415.142 294.536 416.065 292.833 416.065C290.844 416.065 289.765 414.7 289.765 412.828C289.765 410.917 291.026 409.565 292.807 409.565C294.588 409.565 295.706 410.774 295.706 412.828ZM292.82 410.54C291.845 410.54 291.156 411.203 290.974 412.269H294.549C294.406 411.125 293.782 410.54 292.82 410.54ZM302.003 416H300.664L299.104 413.543L297.544 416H296.257L298.428 412.763L296.205 409.63H297.557L299.104 411.957L300.651 409.63H301.951L299.793 412.724L302.003 416ZM306.445 409.565C308.174 409.565 309.344 410.8 309.344 412.737C309.344 414.7 308.148 416.065 306.367 416.065C305.327 416.065 304.651 415.636 304.274 415.025V418.6H303.13V409.63H304.248L304.274 410.696C304.677 410.046 305.405 409.565 306.445 409.565ZM306.289 415.09C307.433 415.09 308.174 414.141 308.174 412.763C308.174 411.411 307.459 410.54 306.315 410.54C304.924 410.54 304.274 411.723 304.274 412.659V412.945C304.274 413.907 304.898 415.09 306.289 415.09ZM316.412 412.828V413.114H311.654C311.745 414.323 312.434 415.09 313.552 415.09C314.67 415.09 315.099 414.505 315.216 413.985H316.373C316.126 415.142 315.242 416.065 313.539 416.065C311.55 416.065 310.471 414.7 310.471 412.828C310.471 410.917 311.732 409.565 313.513 409.565C315.294 409.565 316.412 410.774 316.412 412.828ZM313.526 410.54C312.551 410.54 311.862 411.203 311.68 412.269H315.255C315.112 411.125 314.488 410.54 313.526 410.54ZM320.507 416.065C318.57 416.065 317.53 414.713 317.53 412.841C317.53 410.93 318.765 409.565 320.572 409.565C322.236 409.565 323.211 410.501 323.38 411.957H322.158C322.028 411.164 321.547 410.54 320.585 410.54C319.441 410.54 318.7 411.437 318.7 412.815C318.7 414.18 319.376 415.09 320.559 415.09C321.547 415.09 322.028 414.466 322.158 413.712H323.38C323.185 415.129 322.197 416.065 320.507 416.065ZM328.364 414.908L328.416 415.909C328.208 416 327.818 416.065 327.415 416.065C325.933 416.065 325.049 415.233 325.049 413.907V410.618H324.087V409.63H325.114V407.732H326.193V409.63H328.26V410.592H326.193V413.907C326.193 414.544 326.492 415.064 327.532 415.064C327.818 415.064 328.091 415.025 328.364 414.908ZM335.023 412.828V413.114H330.265C330.356 414.323 331.045 415.09 332.163 415.09C333.281 415.09 333.71 414.505 333.827 413.985H334.984C334.737 415.142 333.853 416.065 332.15 416.065C330.161 416.065 329.082 414.7 329.082 412.828C329.082 410.917 330.343 409.565 332.124 409.565C333.905 409.565 335.023 410.774 335.023 412.828ZM332.137 410.54C331.162 410.54 330.473 411.203 330.291 412.269H333.866C333.723 411.125 333.099 410.54 332.137 410.54ZM341.211 406.77H342.355V416H341.237L341.211 414.934C340.808 415.584 340.08 416.065 339.04 416.065C337.311 416.065 336.141 414.83 336.141 412.893C336.141 410.93 337.337 409.565 339.118 409.565C340.158 409.565 340.834 409.994 341.211 410.605V406.77ZM339.17 415.09C340.561 415.09 341.211 413.907 341.211 412.971V412.685C341.211 411.723 340.587 410.54 339.196 410.54C338.052 410.54 337.311 411.489 337.311 412.867C337.311 414.219 338.026 415.09 339.17 415.09ZM260.475 425.565C260.644 425.565 260.761 425.591 260.839 425.604L260.826 426.735C260.774 426.709 260.657 426.683 260.397 426.683C259.591 426.683 258.837 427.359 258.837 428.646V432H257.693V425.63H258.772L258.798 426.657C259.11 426.033 259.643 425.565 260.475 425.565ZM267.37 428.828V429.114H262.612C262.703 430.323 263.392 431.09 264.51 431.09C265.628 431.09 266.057 430.505 266.174 429.985H267.331C267.084 431.142 266.2 432.065 264.497 432.065C262.508 432.065 261.429 430.7 261.429 428.828C261.429 426.917 262.69 425.565 264.471 425.565C266.252 425.565 267.37 426.774 267.37 428.828ZM264.484 426.54C263.509 426.54 262.82 427.203 262.638 428.269H266.213C266.07 427.125 265.446 426.54 264.484 426.54ZM272.193 425.565C273.922 425.565 275.092 426.8 275.092 428.737C275.092 430.7 273.896 432.065 272.115 432.065C271.075 432.065 270.399 431.636 270.022 431.025V434.6H268.878V425.63H269.996L270.022 426.696C270.425 426.046 271.153 425.565 272.193 425.565ZM272.037 431.09C273.181 431.09 273.922 430.141 273.922 428.763C273.922 427.411 273.207 426.54 272.063 426.54C270.672 426.54 270.022 427.723 270.022 428.659V428.945C270.022 429.907 270.646 431.09 272.037 431.09ZM282.394 430.96L282.485 431.961C282.264 432.026 282.03 432.065 281.757 432.065C281.094 432.065 280.652 431.649 280.574 431.025C280.34 431.389 279.755 432.065 278.338 432.065C276.895 432.065 276.18 431.35 276.18 430.336C276.18 428.958 277.454 428.386 279.222 428.386H280.561V427.97C280.561 427.086 280.015 426.54 278.988 426.54C278.078 426.54 277.519 426.969 277.441 427.736H276.323C276.427 426.358 277.506 425.565 279.066 425.565C280.743 425.565 281.705 426.462 281.705 427.996V430.596C281.705 430.869 281.861 431.025 282.069 431.025C282.186 431.025 282.264 431.012 282.394 430.96ZM278.572 431.142C279.859 431.142 280.561 430.245 280.561 429.66V429.218H279.157C277.961 429.218 277.35 429.582 277.35 430.284C277.35 430.817 277.714 431.142 278.572 431.142ZM287.728 425.63H288.898L286.48 432L286.207 432.715C285.648 434.197 285.037 434.665 283.958 434.665C283.594 434.665 283.217 434.6 283.009 434.509L283.1 433.495C283.321 433.586 283.477 433.625 283.711 433.625C284.309 433.625 284.764 433.495 285.128 432.611L285.284 432.247L282.775 425.63H284.062L285.674 430.154C285.765 430.388 285.817 430.57 285.882 430.83H285.908C285.96 430.57 286.012 430.388 286.09 430.154L287.728 425.63ZM297.347 425.565C298.764 425.565 299.635 426.488 299.635 427.944V432H298.478V428.178C298.478 427.112 297.932 426.54 297.035 426.54C296.06 426.54 295.41 427.19 295.41 428.295V432H294.253V428.178C294.253 427.112 293.707 426.54 292.81 426.54C291.835 426.54 291.185 427.19 291.185 428.295V432H290.041V425.63H291.12L291.172 426.553C291.562 425.981 292.212 425.565 293.122 425.565C294.149 425.565 294.877 426.046 295.215 426.865C295.566 426.124 296.281 425.565 297.347 425.565ZM307.018 428.828V429.114H302.26C302.351 430.323 303.04 431.09 304.158 431.09C305.276 431.09 305.705 430.505 305.822 429.985H306.979C306.732 431.142 305.848 432.065 304.145 432.065C302.156 432.065 301.077 430.7 301.077 428.828C301.077 426.917 302.338 425.565 304.119 425.565C305.9 425.565 307.018 426.774 307.018 428.828ZM304.132 426.54C303.157 426.54 302.468 427.203 302.286 428.269H305.861C305.718 427.125 305.094 426.54 304.132 426.54ZM311.697 425.565C313.101 425.565 313.998 426.423 313.998 427.983V432H312.841V428.217C312.841 427.138 312.334 426.54 311.385 426.54C310.358 426.54 309.669 427.216 309.669 428.295V432H308.525V425.63H309.604L309.656 426.579C310.059 425.994 310.735 425.565 311.697 425.565ZM319.363 430.908L319.415 431.909C319.207 432 318.817 432.065 318.414 432.065C316.932 432.065 316.048 431.233 316.048 429.907V426.618H315.086V425.63H316.113V423.732H317.192V425.63H319.259V426.592H317.192V429.907C317.192 430.544 317.491 431.064 318.531 431.064C318.817 431.064 319.09 431.025 319.363 430.908ZM321.431 427.359C321.431 428.815 325.214 427.71 325.214 430.271C325.214 431.324 324.304 432.065 322.666 432.065C320.911 432.065 320.157 431.363 320.131 430.128L321.184 430.141C321.249 430.752 321.639 431.09 322.679 431.09C323.667 431.09 324.083 430.752 324.083 430.271C324.083 428.789 320.3 429.842 320.3 427.359C320.3 426.306 321.197 425.565 322.744 425.565C324.278 425.565 325.071 426.267 325.123 427.502L324.057 427.489C324.005 426.865 323.524 426.54 322.718 426.54C321.847 426.54 321.431 426.852 321.431 427.359Z" fill="#808691"/>
<g clip-path="url(#clip0_1324_67)">
<rect width="375" height="44" transform="translate(18 32)" fill="white"/>
<path d="M124 30H288C286.396 30.6334 285.327 32.1651 285.286 33.889L285.242 35.7472C285.242 49.6939 273.936 61 259.989 61H152.011C138.064 61 126.758 49.6939 126.758 35.7472L126.714 33.889C126.673 32.1651 125.604 30.6334 124 30Z" fill="black"/>
<path opacity="0.35" d="M350.5 52C350.5 50.8034 351.47 49.8334 352.667 49.8334H369.333C370.53 49.8334 371.5 50.8034 371.5 52V58C371.5 59.1967 370.53 60.1667 369.333 60.1667H352.667C351.47 60.1667 350.5 59.1967 350.5 58V52Z" stroke="black"/>
<path opacity="0.4" d="M373 53.0001V57.0001C373.805 56.6613 374.328 55.8732 374.328 55.0001C374.328 54.1269 373.805 53.3388 373 53.0001Z" fill="black"/>
<path d="M352 52.4334C352 51.8259 352.492 51.3334 353.1 51.3334H368.9C369.508 51.3334 370 51.8259 370 52.4334V57.5667C370 58.1742 369.508 58.6667 368.9 58.6667H353.1C352.492 58.6667 352 58.1742 352 57.5667V52.4334Z" fill="black"/>
<path fill-rule="evenodd" clip-rule="evenodd" d="M337.33 51.6081C339.546 51.6082 341.678 52.4597 343.283 53.9865C343.404 54.1043 343.598 54.1029 343.717 53.9831L344.873 52.8165C344.933 52.7557 344.967 52.6735 344.966 52.5879C344.966 52.5023 344.931 52.4205 344.87 52.3605C340.655 48.3209 334.005 48.3209 329.79 52.3605C329.729 52.4204 329.694 52.5023 329.694 52.5878C329.693 52.6734 329.727 52.7557 329.787 52.8165L330.943 53.9831C331.062 54.103 331.256 54.1045 331.377 53.9865C332.983 52.4596 335.114 51.6081 337.33 51.6081ZM337.33 55.4038C338.548 55.4037 339.722 55.8563 340.624 56.6735C340.747 56.7895 340.939 56.7869 341.058 56.6678L342.212 55.5011C342.273 55.4399 342.307 55.3569 342.306 55.2707C342.305 55.1844 342.27 55.1021 342.208 55.0421C339.46 52.4858 335.204 52.4858 332.455 55.0421C332.393 55.1021 332.358 55.1844 332.357 55.2707C332.356 55.357 332.39 55.44 332.451 55.5011L333.605 56.6678C333.724 56.7869 333.917 56.7895 334.039 56.6735C334.941 55.8568 336.114 55.4043 337.33 55.4038ZM339.643 57.9576C339.645 58.0441 339.611 58.1275 339.549 58.1881L337.552 60.2038C337.494 60.263 337.414 60.2964 337.33 60.2964C337.247 60.2964 337.167 60.263 337.109 60.2038L335.111 58.1881C335.049 58.1275 335.015 58.0441 335.017 57.9576C335.019 57.871 335.057 57.7891 335.121 57.7311C336.396 56.6523 338.265 56.6523 339.54 57.7311C339.604 57.7892 339.642 57.8711 339.643 57.9576Z" fill="black"/>
<path fill-rule="evenodd" clip-rule="evenodd" d="M323.667 49.6666H322.667C322.115 49.6666 321.667 50.1143 321.667 50.6666V59.3333C321.667 59.8856 322.115 60.3333 322.667 60.3333H323.667C324.219 60.3333 324.667 59.8856 324.667 59.3333V50.6666C324.667 50.1143 324.219 49.6666 323.667 49.6666ZM318 52H319C319.553 52 320 52.4477 320 53V59.3333C320 59.8856 319.553 60.3333 319 60.3333H318C317.448 60.3333 317 59.8856 317 59.3333V53C317 52.4477 317.448 52 318 52ZM314.334 54.3333H313.334C312.781 54.3333 312.334 54.781 312.334 55.3333V59.3333C312.334 59.8856 312.781 60.3333 313.334 60.3333H314.334C314.886 60.3333 315.334 59.8856 315.334 59.3333V55.3333C315.334 54.781 314.886 54.3333 314.334 54.3333ZM309.667 56.3333H308.667C308.115 56.3333 307.667 56.781 307.667 57.3333V59.3333C307.667 59.8856 308.115 60.3333 308.667 60.3333H309.667C310.219 60.3333 310.667 59.8856 310.667 59.3333V57.3333C310.667 56.781 310.219 56.3333 309.667 56.3333Z" fill="black"/>
<rect x="39" y="44" width="54" height="21" rx="10.5" fill="white"/>
<path d="M56.1418 49.575C58.9168 49.575 60.5968 51.585 60.5968 54.75C60.5968 58.17 58.9018 60.12 56.1868 60.12C54.0268 60.12 52.5868 58.89 52.5868 57.075L55.3318 57.09C55.3318 57.54 55.6768 57.75 56.2018 57.75C57.1468 57.75 57.7168 57.12 57.8218 55.47C57.3268 55.905 56.6218 56.205 55.7068 56.205C53.7568 56.22 52.3018 54.99 52.3018 53.07C52.3018 51.15 53.5918 49.575 56.1418 49.575ZM56.2918 54.18C57.3568 54.18 57.8518 53.22 57.3868 52.5C57.1318 52.11 56.7568 51.945 56.2618 51.945C55.3768 51.945 55.0318 52.455 55.0318 53.055C55.0318 53.655 55.3768 54.195 56.2918 54.18ZM62.8446 52.515C63.8196 52.515 64.4496 53.145 64.4646 54.06C64.4646 54.96 63.8196 55.62 62.8446 55.62C61.8846 55.62 61.2396 54.96 61.2396 54.06C61.2396 53.145 61.8846 52.515 62.8446 52.515ZM62.8446 57.045C63.8196 57.045 64.4496 57.675 64.4646 58.59C64.4646 59.49 63.8196 60.15 62.8446 60.15C61.8846 60.15 61.2396 59.49 61.2396 58.59C61.2396 57.675 61.8846 57.045 62.8446 57.045ZM73.2331 55.815V58.065H72.0031V60H69.2881V58.065H64.8181V55.965L68.7031 49.71H72.0031V55.815H73.2331ZM67.4731 55.8V55.815H69.4981V52.275H69.4831L67.4731 55.8ZM78.3045 57.75H79.8795V60H73.7895V57.75H75.5745V52.92C75.0495 53.145 74.6295 53.22 73.8495 53.22V50.985C75.0045 50.985 75.6495 50.685 76.1445 49.71H78.3045V57.75Z" fill="black"/>
</g>
<rect x="18.5" y="32.5" width="374" height="479.715" rx="11.5" stroke="#DADADA"/>
</g>
<defs>
<clipPath id="clip0_1324_67">
<rect width="375" height="44" fill="white" transform="translate(18 32)"/>
</clipPath>
</defs>
</svg>
