<svg width="41" height="13" viewBox="0 0 41 13" fill="none" xmlns="http://www.w3.org/2000/svg">
<path d="M3.00385 10.16H8.53985V12H0.795852V1.024H8.44385V2.88H3.00385V5.504H7.83585V7.296H3.00385V10.16Z" fill="#4285F6"/>
<path d="M19.715 4.08C21.459 4.08 22.387 5.312 22.387 7.056V12H20.179V7.536C20.179 6.544 19.683 5.984 18.883 5.984C18.003 5.984 17.395 6.64 17.395 7.616V12H15.203V7.536C15.203 6.56 14.723 5.984 13.907 5.984C13.027 5.984 12.419 6.64 12.419 7.616V12H10.227V4.16H12.339L12.403 5.296C12.851 4.576 13.619 4.08 14.707 4.08C15.971 4.08 16.803 4.736 17.171 5.712C17.571 4.768 18.419 4.08 19.715 4.08Z" fill="#C5211F"/>
<path d="M31.7942 10.192L31.9222 11.92C31.6182 12.016 31.2502 12.08 30.8022 12.08C29.9542 12.08 29.2982 11.68 29.0262 10.816H29.0102C28.7542 11.296 28.0982 12.08 26.4342 12.08C24.7062 12.08 23.7782 11.232 23.7782 9.936C23.7782 8.016 25.7462 7.456 27.8902 7.456H28.8982V7.104C28.8982 6.288 28.4022 5.744 27.4102 5.744C26.5782 5.744 26.0502 6.16 25.9702 6.832H23.9862C24.1142 5.056 25.4902 4.08 27.5222 4.08C29.8102 4.08 31.0262 5.28 31.0262 7.264V9.792C31.0262 10.112 31.1702 10.272 31.3942 10.272C31.5382 10.272 31.6182 10.256 31.7942 10.192ZM27.0422 10.48C28.1942 10.48 28.8982 9.776 28.8982 9.152V8.656H27.7622C26.5942 8.656 25.9062 8.992 25.9062 9.68C25.9062 10.192 26.2902 10.48 27.0422 10.48Z" fill="#EC4235"/>
<path d="M35.6456 1.632C35.6456 2.432 35.0216 2.992 34.2216 2.992C33.4376 2.992 32.8136 2.432 32.8136 1.632C32.8136 0.848 33.4376 0.256 34.2216 0.256C35.0216 0.256 35.6456 0.848 35.6456 1.632ZM33.1176 12V4.16H35.3256V12H33.1176Z" fill="#FABD03"/>
<path d="M40.1859 10.192L40.3139 11.92C40.0099 12.016 39.6419 12.08 39.1619 12.08C37.8819 12.08 37.2259 11.312 37.2259 9.92V0.639999H39.4179V9.792C39.4179 10.096 39.5779 10.272 39.8019 10.272C39.9299 10.272 40.0099 10.256 40.1859 10.192Z" fill="#34A855"/>
</svg>
