<svg width="62" height="13" viewBox="0 0 62 13" fill="none" xmlns="http://www.w3.org/2000/svg">
<path d="M3.00385 10.064H8.37985V12H0.795852V1.024H3.00385V10.064ZM12.0362 1.632C12.0362 2.432 11.4122 2.992 10.6122 2.992C9.82823 2.992 9.20423 2.432 9.20423 1.632C9.20423 0.848 9.82823 0.256 10.6122 0.256C11.4122 0.256 12.0362 0.848 12.0362 1.632ZM9.50823 12V4.16H11.7162V12H9.50823ZM18.2885 4.08C20.0645 4.08 21.0245 5.328 21.0245 7.088V12H18.8325V7.584C18.8325 6.592 18.3685 5.984 17.4405 5.984C16.4805 5.984 15.8565 6.64 15.8565 7.616V12H13.6645V4.16H15.7765L15.8405 5.312C16.3045 4.576 17.0885 4.08 18.2885 4.08ZM28.2909 12L26.1949 8.912L25.0909 10.128V12H22.8989V0.639999H25.0909V7.392L27.8589 4.144H30.4669L27.6029 7.344L30.7549 12H28.2909ZM38.4742 8.144V8.56H32.9542C33.1142 9.76 33.8182 10.368 34.8422 10.368C35.8982 10.368 36.2822 9.824 36.4102 9.408H38.4422C38.1862 10.768 37.0982 12.08 34.7302 12.08C32.3462 12.08 30.8422 10.432 30.8422 8.096C30.8422 5.728 32.4902 4.08 34.7622 4.08C37.1462 4.08 38.4742 5.744 38.4742 8.144ZM34.7782 5.712C33.8982 5.712 33.1942 6.208 32.9862 7.296H36.4262C36.2822 6.176 35.6742 5.712 34.7782 5.712ZM45.4322 0.639999H47.6242V12H45.4962L45.4482 10.864C44.9842 11.568 44.1842 12.08 43.0162 12.08C41.0322 12.08 39.5922 10.64 39.5922 8.176C39.5922 5.776 40.9522 4.08 43.1282 4.08C44.2802 4.08 45.0002 4.544 45.4322 5.232V0.639999ZM43.5602 10.24C44.7762 10.24 45.4322 9.216 45.4322 8.336V7.84C45.4322 6.896 44.7442 5.92 43.5762 5.92C42.5362 5.92 41.8162 6.784 41.8162 8.112C41.8162 9.408 42.5042 10.24 43.5602 10.24ZM49.8427 12V1.024H52.0507V12H49.8427ZM58.8197 4.08C60.5957 4.08 61.5557 5.328 61.5557 7.088V12H59.3637V7.584C59.3637 6.592 58.8997 5.984 57.9717 5.984C57.0117 5.984 56.3877 6.64 56.3877 7.616V12H54.1957V4.16H56.3077L56.3717 5.312C56.8357 4.576 57.6197 4.08 58.8197 4.08Z" fill="#0077B7"/>
</svg>
