<svg width="53" height="13" viewBox="0 0 53 13" fill="none" xmlns="http://www.w3.org/2000/svg">
<path d="M4.17985 12V2.896H0.707852V1.024H9.85985V2.896H6.38785V12H4.17985ZM18.7956 4.16H21.0836L18.8596 12H16.3476L15.2596 7.872C15.2116 7.632 15.1156 7.2 15.0996 7.024H15.0516C15.0356 7.2 14.9716 7.632 14.9076 7.872L13.8196 12H11.3076L9.0836 4.16H11.3716L12.4436 8.896C12.5236 9.312 12.6036 9.616 12.6356 9.92H12.6836C12.7316 9.616 12.8116 9.312 12.9076 8.896L14.0916 4.16H16.0596L17.2596 8.896C17.3556 9.312 17.4356 9.616 17.4836 9.92H17.5316C17.5636 9.616 17.6276 9.344 17.7236 8.896L18.7956 4.16ZM24.7862 1.632C24.7862 2.432 24.1622 2.992 23.3622 2.992C22.5782 2.992 21.9542 2.432 21.9542 1.632C21.9542 0.848 22.5782 0.256 23.3622 0.256C24.1622 0.256 24.7862 0.848 24.7862 1.632ZM22.2582 12V4.16H24.4662V12H22.2582ZM31.4065 10.08L31.4705 11.872C31.1825 11.984 30.6865 12.08 30.1105 12.08C28.0305 12.08 26.8785 10.864 26.8785 9.088V5.904H25.7265V4.16H27.0065V1.936H29.0705V4.16H31.4065V5.904H29.0705V8.992C29.0705 9.76 29.4545 10.256 30.4625 10.256C30.7985 10.256 31.1025 10.192 31.4065 10.08ZM37.7659 10.08L37.8299 11.872C37.5419 11.984 37.0459 12.08 36.4699 12.08C34.3899 12.08 33.2379 10.864 33.2379 9.088V5.904H32.0859V4.16H33.3659V1.936H35.4299V4.16H37.7659V5.904H35.4299V8.992C35.4299 9.76 35.8139 10.256 36.8219 10.256C37.1579 10.256 37.4619 10.192 37.7659 10.08ZM46.2555 8.144V8.56H40.7355C40.8955 9.76 41.5995 10.368 42.6235 10.368C43.6795 10.368 44.0635 9.824 44.1915 9.408H46.2235C45.9675 10.768 44.8795 12.08 42.5115 12.08C40.1275 12.08 38.6235 10.432 38.6235 8.096C38.6235 5.728 40.2715 4.08 42.5435 4.08C44.9275 4.08 46.2555 5.744 46.2555 8.144ZM42.5595 5.712C41.6795 5.712 40.9755 6.208 40.7675 7.296H44.2075C44.0635 6.176 43.4555 5.712 42.5595 5.712ZM51.9655 4.08C52.1415 4.08 52.3655 4.096 52.4615 4.144L52.4455 6.288C52.3175 6.24 52.2055 6.208 51.9015 6.208C50.9095 6.208 50.1095 6.832 49.9815 7.952V12H47.7895V4.16H49.9015L49.9495 5.44C50.3175 4.64 50.9415 4.08 51.9655 4.08Z" fill="#1D9BF0"/>
</svg>
